<svg xmlns="http://www.w3.org/2000/svg" viewBox="0 0 1642.52 2091.6001" height="2091.6" width="1642.52"><path d="M1486.827 394.32c-38.347-129.987-124.694-246.04-251.338-319.16C1105.51.12 957.537-15.547 822.983 19.72c118.2 32.52 225.592 104.507 300.693 210.187 142.16 7.333 269.95 68.906 363.15 164.413" fill="#fadc43"/><path d="M516.95 230.027c10.122-.547 20.29-.867 30.555-.867 99.735 0 193.215 26.68 273.752 73.267 80.519-46.587 174.03-73.267 273.756-73.267 9.614 0 19.182.253 28.663.747C1048.575 124.227 941.183 52.24 822.983 19.72 702.836 51.2 593.377 123.293 516.949 230.027" fill="#f8cc0a"/><path d="M821.257 302.427C740.72 255.84 647.24 229.16 547.505 229.16c-10.265 0-20.433.32-30.556.867a552.056 552.056 0 0 0-29.372 45.546c-49.861 86.374-73.5 180.667-73.422 273.707 68.062-39.227 143.794-63.333 221.68-70.853 47.021-72.254 110.62-132.72 185.422-176" fill="#f9b00c"/><path d="M566.9 631.893c15.063-55.106 38.524-106.746 68.935-153.466-77.886 7.52-153.618 31.626-221.68 70.853.066 77.867 16.776 154.853 48.656 225.55 26.357-52.31 61.244-100.723 104.089-142.937" fill="#d29413"/><path d="M566.9 631.893c-42.845 42.214-77.732 90.627-104.09 142.938 25.905 57.474 61.84 110.762 107.042 157.021-14.51-49.197-22.347-101.27-22.347-155.164 0-50.141 6.772-98.675 19.395-144.795" fill="#ae7b19"/><path d="M493.377 1321.508c-130.654-12.817-247.816-71.544-335.152-159.883 35.674 136.764 123.927 259.762 256.007 336.015 128.843 74.387 275.355 90.413 408.972 56.36-131.452-31.72-251.001-111.787-329.827-232.492" fill="#ee2834"/><path d="M1147.148 1321.707c-17.15 1.59-34.545 2.477-52.135 2.477-99.726 0-193.216-26.677-273.756-73.268-80.537 46.59-174.017 73.268-273.752 73.268-18.268 0-36.325-.93-54.128-2.676C572.203 1442.213 691.752 1522.28 823.204 1554c129.295-32.987 246.523-112.88 323.944-232.293" fill="#d9252e"/><path d="M821.257 1250.916c80.54 46.59 174.03 73.268 273.756 73.268 17.59 0 34.986-.887 52.135-2.477 5.173-8 10.168-16.159 14.987-24.488 49.86-86.352 73.509-180.66 73.422-273.71-74.35 42.856-157.852 67.632-243.297 72.494-45.288 62.945-103.59 115.924-171.003 154.913" fill="#c42129"/><path d="M1074.745 924.803c-17.485 62.237-45.686 120.036-82.485 171.2 85.445-4.862 168.947-29.638 243.297-72.494-.068-86.397-20.644-171.732-59.696-248.568a545.194 545.194 0 0 1-101.116 149.862" fill="#b11e25"/><path d="M1077.417 638.493c11.495 44.147 17.596 90.454 17.596 138.195 0 51.33-7.076 100.992-20.268 148.115a545.194 545.194 0 0 0 101.116-149.862c-25.265-49.701-58.24-95.834-98.444-136.448" fill="#9f1b21"/><path d="M516.95 230.027C593.376 123.293 702.835 51.2 822.982 19.72 686.704-17.773 536.079-2.84 404 73.413c-128.845 74.4-215.981 193.267-253.287 326.014 93.203-97.987 222.31-161.48 366.236-169.4" fill="#fadc43"/><path d="M189.899 796.125a561.561 561.561 0 0 1 23.924-46.405c49.874-86.36 119.726-153.987 200.332-200.44-.078-93.04 23.561-187.333 73.422-273.707 9.127-15.813 18.951-31 29.372-45.546-143.926 7.92-273.033 71.413-366.236 169.4-36.117 128.466-25.528 269.92 39.186 396.698" fill="#f8cc0a"/><path d="M462.81 774.83c-31.88-70.697-48.589-147.683-48.655-225.55-80.606 46.453-150.458 114.08-200.332 200.44a561.561 561.561 0 0 0-23.924 46.405 582.61 582.61 0 0 0 13.701 25.196c49.864 86.375 119.716 154.006 200.332 200.44.068-85.797 20.345-170.513 58.879-246.93" fill="#f9b00c"/><path d="M649.063 1094.367c-34.843-48.82-61.83-103.614-79.211-162.515-45.201-46.259-81.137-99.547-107.041-157.021-38.534 76.417-58.811 161.133-58.879 246.93 74.87 43.146 159.044 67.99 245.13 72.606" fill="#d29413"/><path d="M687.984 1023.487c-44.47-25.66-83.944-56.647-118.132-91.635 17.381 58.901 44.368 113.695 79.21 162.515 55.665 2.964 112.114-2.539 167.377-17.016-43.959-12.156-87.124-30.015-128.455-53.864" fill="#ae7b19"/><path d="M1147.148 1321.707c-77.421 119.413-194.65 199.306-323.944 232.293 131.727 31.773 275.432 14.987 402.052-58.107 129.984-75.053 217.53-195.358 254.277-329.516-87.253 86.108-203.288 143.107-332.385 155.33" fill="#c91840"/><path d="M1450.427 796.193a551.85 551.85 0 0 1-14.534 26.875c-49.866 86.373-119.709 154.004-200.336 200.441.087 93.05-23.562 187.358-73.422 273.71a579.218 579.218 0 0 1-14.987 24.488c129.097-12.223 245.132-69.222 332.385-155.33 32.8-119.793 25.107-250.637-29.106-370.184" fill="#a7193a"/><path d="M1225.347 547.533c-.067 78.56-17.042 156.2-49.486 227.408 39.052 76.836 59.628 162.171 59.696 248.568 80.627-46.437 150.47-114.068 200.336-200.441a551.85 551.85 0 0 0 14.534-26.875 564.847 564.847 0 0 0-24.747-48.22c-49.893-86.36-119.73-153.986-200.333-200.44" fill="#881933"/><path d="M1005.675 476.907c32.114 48.973 56.604 103.4 71.742 161.586 40.204 40.614 73.179 86.747 98.444 136.448 32.444-71.208 49.419-148.848 49.486-227.408-67.48-38.88-142.492-62.893-219.672-70.626" fill="#6b172c"/><path d="M961.736 549.32c43.39 25.067 82.065 55.187 115.681 89.173-15.138-58.186-39.628-112.613-71.742-161.586-62.702-6.307-126.842-1.827-189.5 14.173 49.86 12.04 98.882 31.293 145.561 58.24" fill="#511423"/><path d="M1486.827 394.32c38.28 129.693 28.693 273.267-36.4 401.873 54.213 119.547 61.906 250.391 29.106 370.184 100.614-99.284 162.987-237.198 162.987-389.689 0-148.795-59.373-283.688-155.693-382.368" fill="#5ac5eb"/><path d="M1123.676 229.907c9.992 14.053 19.452 28.68 28.245 43.92 49.842 86.373 73.491 180.666 73.426 273.706 80.604 46.454 150.44 114.08 200.333 200.44a564.847 564.847 0 0 1 24.747 48.22c65.093-128.606 74.68-272.18 36.4-401.873-93.2-95.507-220.991-157.08-363.151-164.413" fill="#4da4dd"/><path d="M1225.347 547.533c.065-93.04-23.584-187.333-73.426-273.706-8.793-15.24-18.253-29.867-28.245-43.92a551.907 551.907 0 0 0-28.663-.747c-99.726 0-193.237 26.68-273.756 73.267 74.286 42.96 137.498 102.893 184.418 174.48 77.18 7.733 152.192 31.746 219.672 70.626" fill="#4286ce"/><path d="M816.175 491.08c62.658-16 126.798-20.48 189.5-14.173-46.92-71.587-110.132-131.52-184.418-174.48-74.802 43.28-138.401 103.746-185.422 176 59.686-5.76 120.632-1.747 180.34 12.653" fill="#3c5a98"/><path d="M816.175 491.08c-59.708-14.4-120.654-18.413-180.34-12.653-30.411 46.72-53.872 98.36-68.935 153.466 32.49-32 69.521-60.453 110.852-84.32 44.457-25.666 91.015-44.373 138.423-56.493" fill="#37366d"/><path d="M189.899 796.125c-64.714-126.778-75.303-268.232-39.186-396.698C57.32 497.627 0 630.467 0 776.688c0 150.081 60.405 286.03 158.225 384.937-30.954-118.621-22.3-247.609 31.674-365.5" fill="#fadc43"/><path d="M493.377 1321.508a548.98 548.98 0 0 1-16.024-26.036c-49.861-86.352-73.509-180.661-73.421-273.71-80.616-46.435-150.468-114.066-200.332-200.44a582.61 582.61 0 0 1-13.701-25.197c-53.974 117.891-62.628 246.879-31.674 365.5 87.336 88.339 204.498 147.066 335.152 159.883" fill="#f8cc0a"/><path d="M403.932 1021.761c-.088 93.05 23.56 187.359 73.421 273.711a548.98 548.98 0 0 0 16.024 26.036c17.803 1.747 35.86 2.676 54.128 2.676 99.735 0 193.215-26.677 273.752-73.268-68.006-39.344-126.753-92.872-172.194-156.55-86.087-4.615-170.26-29.46-245.131-72.605" fill="#f9b00c"/><path d="M816.439 1077.35c-55.263 14.478-111.712 19.98-167.376 17.017 45.441 63.677 104.188 117.205 172.194 156.549 67.414-38.99 125.715-91.968 171.003-154.913-58.459 3.318-117.848-2.675-175.821-18.652" fill="#d29413"/><path d="M816.439 1077.35c57.973 15.978 117.362 21.971 175.821 18.653 36.799-51.164 65-108.963 82.485-171.2-35.364 37.153-76.562 69.973-123.242 96.917-43.407 25.063-88.806 43.475-135.064 55.63" fill="#ae7b19"/><path d="M256.545 1762.173h66.826L477.728 1965v-202.827h71.53V2091.6h-61.647l-159.534-209.413V2091.6h-71.532v-329.427M722.433 1762.173H973.26v65.88H794.905v70.134h157.179v65.88H794.905V2091.6h-72.472v-329.427M1255.144 1928.293c36.236 0 57.413-21.64 57.413-49.88v-.933c0-32.48-22.589-49.893-58.825-49.893h-56.001v100.706zm-129.887-166.12h134.592c78.591 0 126.124 46.6 126.124 113.894v.933c0 76.24-59.297 115.773-133.18 115.773h-55.062v98.827h-72.474v-329.427" fill="#511423"/></svg>