<svg xmlns="http://www.w3.org/2000/svg" viewBox="0 0 499.99951 478.24803" height="478.25" width="500"><path d="M452.6 120.04a166.07 166.07 0 0 0-76.5-97.16A166.13 166.13 0 0 0 250.53 6 166.15 166.15 0 0 1 342.06 70a166.14 166.14 0 0 1 110.55 50.05" fill="#fadc43"/><path d="M157.37 70.02A165.9 165.9 0 0 1 250 92.06 165.93 165.93 0 0 1 342.06 70 166.15 166.15 0 0 0 250.53 6a166.17 166.17 0 0 0-93.16 64.02" fill="#f8cc0a"/><path d="M250 92.06a165.9 165.9 0 0 0-92.63-22.04 168.08 168.08 0 0 0-8.95 13.87 165.9 165.9 0 0 0-22.35 83.32 167.5 167.5 0 0 1 67.49-21.57c14.3-22 33.67-40.4 56.44-53.58" fill="#f9b00c"/><path d="M172.57 192.36a165.63 165.63 0 0 1 20.99-46.72 167.5 167.5 0 0 0-67.49 21.57c.02 23.7 5.11 47.14 14.81 68.66a165.73 165.73 0 0 1 31.7-43.51" fill="#d29413"/><path d="M172.57 192.36a165.73 165.73 0 0 0-31.69 43.5 165.89 165.89 0 0 0 32.59 47.8 166.74 166.74 0 0 1-6.8-47.23c0-15.26 2.06-30.03 5.9-44.07" fill="#ae7b19"/><path d="M150.19 402.28a166.1 166.1 0 0 1-102.02-48.67A166.14 166.14 0 0 0 126.1 455.9a166.12 166.12 0 0 0 124.5 17.16 166.18 166.18 0 0 1-100.41-70.78" fill="#ee2834"/><path d="M349.2 402.34A165.9 165.9 0 0 1 250 380.8a165.88 165.88 0 0 1-83.33 22.3c-5.56 0-11.06-.27-16.48-.8a166.18 166.18 0 0 0 100.4 70.77 166.19 166.19 0 0 0 98.62-70.72" fill="#d9252e"/><path d="M250 380.8a165.9 165.9 0 0 0 83.33 22.3c5.36 0 10.66-.27 15.88-.76a165.82 165.82 0 0 0 26.91-90.78 167.46 167.46 0 0 1-74.06 22.08A167.53 167.53 0 0 1 250 380.79" fill="#c42129"/><path d="M327.16 281.52a166.27 166.27 0 0 1-25.1 52.12 167.46 167.46 0 0 0 74.06-22.07 167.44 167.44 0 0 0-18.17-75.67 165.93 165.93 0 0 1-30.79 45.62" fill="#b11e25"/><path d="M327.98 194.37a166.79 166.79 0 0 1 5.35 42.06c0 15.63-2.15 30.75-6.17 45.1a165.93 165.93 0 0 0 30.79-45.63 165.74 165.74 0 0 0-29.97-41.53" fill="#9f1b21"/><path d="M157.37 70.02A166.17 166.17 0 0 1 250.53 6a166.15 166.15 0 0 0-127.55 16.35 166.12 166.12 0 0 0-77.1 99.24 166.18 166.18 0 0 1 111.49-51.57" fill="#fadc43"/><path d="M57.8 242.35c2.2-4.77 4.62-9.49 7.29-14.13a165.93 165.93 0 0 1 60.98-61.01 165.9 165.9 0 0 1 22.35-83.32c2.78-4.82 5.77-9.44 8.95-13.87a166.18 166.18 0 0 0-111.5 51.57c-10.99 39.1-7.76 82.17 11.94 120.76" fill="#f8cc0a"/><path d="M140.88 235.87a167.52 167.52 0 0 1-14.8-68.66 165.93 165.93 0 0 0-60.99 61.01c-2.67 4.64-5.1 9.36-7.28 14.13a165.84 165.84 0 0 0 65.15 68.69c.02-26.12 6.2-51.91 17.92-75.17" fill="#f9b00c"/><path d="M197.58 333.14a166.06 166.06 0 0 1-24.11-49.47 165.89 165.89 0 0 1-32.59-47.8 167.42 167.42 0 0 0-17.92 75.17 167.58 167.58 0 0 0 74.62 22.1" fill="#d29413"/><path d="M209.43 311.56a166.67 166.67 0 0 1-35.96-27.9 166.06 166.06 0 0 0 24.11 49.48c16.95.9 34.13-.77 50.95-5.18a167.52 167.52 0 0 1-39.1-16.4" fill="#ae7b19"/><path d="M349.2 402.34a166.19 166.19 0 0 1-98.6 70.72 166.1 166.1 0 0 0 122.38-17.7 166.15 166.15 0 0 0 77.4-100.3 166.17 166.17 0 0 1-101.17 47.28" fill="#c91840"/><path d="M441.53 242.37a165.8 165.8 0 0 1-65.41 69.2 165.82 165.82 0 0 1-26.91 90.77 166.17 166.17 0 0 0 101.18-47.28 166.19 166.19 0 0 0-8.86-112.69" fill="#a7193a"/><path d="M373.01 166.68a167.46 167.46 0 0 1-15.06 69.22 167.44 167.44 0 0 1 18.17 75.67 165.8 165.8 0 0 0 65.4-69.2A172.14 172.14 0 0 0 434 227.7a165.96 165.96 0 0 0-60.98-61.01" fill="#881933"/><path d="M306.14 145.18a165.82 165.82 0 0 1 21.84 49.19 165.74 165.74 0 0 1 29.97 41.53A167.45 167.45 0 0 0 373 166.68a167.54 167.54 0 0 0-66.87-21.5" fill="#6b172c"/><path d="M292.76 167.22a166.85 166.85 0 0 1 35.22 27.15 165.82 165.82 0 0 0-21.84-49.2 165.9 165.9 0 0 0-57.69 4.32 166.78 166.78 0 0 1 44.31 17.73" fill="#511423"/><path d="M452.6 120.04a166.18 166.18 0 0 1-11.07 122.33 166.19 166.19 0 0 1 8.86 112.69A166.14 166.14 0 0 0 500 236.43c0-45.3-18.07-86.36-47.4-116.4" fill="#5ac5eb"/><path d="M342.06 69.99a166.05 166.05 0 0 1 30.95 96.69A165.96 165.96 0 0 1 434 227.69c2.77 4.82 5.28 9.72 7.54 14.68a166.18 166.18 0 0 0 11.08-122.33 166.14 166.14 0 0 0-110.55-50.05" fill="#4da4dd"/><path d="M373.01 166.68a166.05 166.05 0 0 0-30.95-96.7A165.93 165.93 0 0 0 250 92.06a167.47 167.47 0 0 1 56.14 53.13 167.54 167.54 0 0 1 66.87 21.5" fill="#4286ce"/><path d="M248.45 149.5a165.9 165.9 0 0 1 57.69-4.32A167.47 167.47 0 0 0 250 92.06a167.53 167.53 0 0 0-56.44 53.58 165.92 165.92 0 0 1 54.9 3.85" fill="#3c5a98"/><path d="M248.45 149.5a165.92 165.92 0 0 0-54.9-3.86 165.63 165.63 0 0 0-20.98 46.72 166.95 166.95 0 0 1 33.75-25.67 166.8 166.8 0 0 1 42.13-17.2" fill="#37366d"/><path d="M57.8 242.35A166.12 166.12 0 0 1 45.89 121.6 166.1 166.1 0 0 0 0 236.43a166.1 166.1 0 0 0 48.17 117.18 166.1 166.1 0 0 1 9.64-111.26" fill="#fadc43"/><path d="M150.19 402.28a165.86 165.86 0 0 1-27.23-91.25 165.84 165.84 0 0 1-65.15-68.68 166.1 166.1 0 0 0-9.64 111.26 166.1 166.1 0 0 0 102.02 48.67" fill="#f8cc0a"/><path d="M122.96 311.04a165.86 165.86 0 0 0 27.23 91.24c5.42.54 10.92.82 16.48.82 30.36 0 58.81-8.12 83.33-22.3a167.5 167.5 0 0 1-52.42-47.66 167.58 167.58 0 0 1-74.62-22.1" fill="#f9b00c"/><path d="M248.53 327.96c-16.82 4.4-34 6.08-50.95 5.18A167.5 167.5 0 0 0 250 380.79a167.53 167.53 0 0 0 52.06-47.15 165.98 165.98 0 0 1-53.53-5.68" fill="#d29413"/><path d="M248.53 327.96a165.98 165.98 0 0 0 53.53 5.68 166.27 166.27 0 0 0 25.1-52.12 166.88 166.88 0 0 1-37.51 29.5 167.01 167.01 0 0 1-41.12 16.94" fill="#ae7b19"/></svg>