<?xml version="1.0" encoding="UTF-8" standalone="no"?>
<svg
   xmlns:dc="http://purl.org/dc/elements/1.1/"
   xmlns:cc="http://creativecommons.org/ns#"
   xmlns:rdf="http://www.w3.org/1999/02/22-rdf-syntax-ns#"
   xmlns:svg="http://www.w3.org/2000/svg"
   xmlns="http://www.w3.org/2000/svg"
   viewBox="0 0 1642.52 2091.6001"
   height="2091.6001"
   width="1642.52"
   xml:space="preserve"
   id="svg2"
   version="1.1"><metadata
     id="metadata8"><rdf:RDF><cc:Work
         rdf:about=""><dc:format>image/svg+xml</dc:format><dc:type
           rdf:resource="http://purl.org/dc/dcmitype/StillImage" /></cc:Work></rdf:RDF></metadata><defs
     id="defs6" /><g
     transform="matrix(1.3333333,0,0,-1.3333333,0,2091.6)"
     id="g10"><g
       transform="scale(0.1)"
       id="g12"><path
         id="path14"
         style="fill:#fadc43;fill-opacity:1;fill-rule:nonzero;stroke:none"
         d="m 11151.2,12729.6 c -287.6,974.9 -935.2,1845.3 -1885.03,2393.7 -974.85,562.8 -2084.64,680.3 -3093.8,415.8 886.5,-243.9 1691.94,-783.8 2255.2,-1576.4 1066.2,-55 2024.63,-516.8 2723.63,-1233.1" /><path
         id="path16"
         style="fill:#f8cc0a;fill-opacity:1;fill-rule:nonzero;stroke:none"
         d="m 3877.12,13961.8 c 75.92,4.1 152.18,6.5 229.17,6.5 748.01,0 1449.11,-200.1 2053.14,-549.5 603.89,349.4 1305.22,549.5 2053.17,549.5 72.1,0 143.86,-1.9 214.97,-5.6 -563.26,792.6 -1368.7,1332.5 -2255.2,1576.4 -901.1,-236.1 -1722.04,-776.8 -2295.25,-1577.3" /><path
         id="path18"
         style="fill:#f9b00c;fill-opacity:1;fill-rule:nonzero;stroke:none"
         d="m 6159.43,13418.8 c -604.03,349.4 -1305.13,549.5 -2053.14,549.5 -76.99,0 -153.25,-2.4 -229.17,-6.5 -78.16,-109.1 -151.84,-223 -220.29,-341.6 -373.96,-647.8 -551.25,-1355 -550.67,-2052.8 510.47,294.2 1078.46,475 1662.6,531.4 352.66,541.9 829.65,995.4 1390.67,1320" /><path
         id="path20"
         style="fill:#d29413;fill-opacity:1;fill-rule:nonzero;stroke:none"
         d="m 4251.75,10947.8 c 112.97,413.3 288.93,800.6 517.01,1151 -584.14,-56.4 -1152.13,-237.2 -1662.6,-531.4 0.5,-584 125.82,-1161.4 364.92,-1691.63 197.68,392.33 459.33,755.43 780.67,1072.03" /><path
         id="path22"
         style="fill:#ae7b19;fill-opacity:1;fill-rule:nonzero;stroke:none"
         d="m 4251.75,10947.8 c -321.34,-316.6 -582.99,-679.7 -780.67,-1072.03 194.28,-431.06 463.8,-830.72 802.81,-1177.66 -108.83,368.98 -167.6,759.52 -167.6,1163.73 0,376.06 50.79,740.06 145.46,1085.96" /><path
         id="path24"
         style="fill:#ee2834;fill-opacity:1;fill-rule:nonzero;stroke:none"
         d="M 3700.33,5775.69 C 2720.42,5871.82 1841.71,6312.27 1186.69,6974.81 1454.24,5949.08 2116.14,5026.6 3106.74,4454.7 4073.06,3896.8 5171.9,3776.6 6174.03,4032 5188.14,4269.9 4291.52,4870.4 3700.33,5775.69" /><path
         id="path26"
         style="fill:#d9252e;fill-opacity:1;fill-rule:nonzero;stroke:none"
         d="m 8603.61,5774.2 c -128.62,-11.93 -259.09,-18.58 -391.01,-18.58 -747.95,0 -1449.12,200.08 -2053.17,549.51 C 5555.4,5955.7 4854.3,5755.62 4106.29,5755.62 c -137.01,0 -272.44,6.97 -405.96,20.07 C 4291.52,4870.4 5188.14,4269.9 6174.03,4032 c 969.71,247.4 1848.92,846.6 2429.58,1742.2" /><path
         id="path28"
         style="fill:#c42129;fill-opacity:1;fill-rule:nonzero;stroke:none"
         d="m 6159.43,6305.13 c 604.05,-349.43 1305.22,-549.51 2053.17,-549.51 131.92,0 262.39,6.65 391.01,18.58 38.8,60 76.26,121.19 112.4,183.66 373.95,647.64 551.32,1354.95 550.67,2052.82 C 8709.05,7689.26 8082.79,7503.44 7441.95,7466.98 7102.29,6994.89 6665.03,6597.55 6159.43,6305.13" /><path
         id="path30"
         style="fill:#b11e25;fill-opacity:1;fill-rule:nonzero;stroke:none"
         d="m 8060.59,8750.98 c -131.14,-466.78 -342.65,-900.27 -618.64,-1284 640.84,36.46 1267.1,222.28 1824.73,543.7 -0.51,647.98 -154.83,1287.99 -447.72,1864.26 -186.32,-409.34 -440.94,-790.11 -758.37,-1123.96" /><path
         id="path32"
         style="fill:#9f1b21;fill-opacity:1;fill-rule:nonzero;stroke:none"
         d="m 8080.63,10898.3 c 86.21,-331.1 131.97,-678.4 131.97,-1036.46 0,-384.98 -53.07,-757.44 -152.01,-1110.86 317.43,333.85 572.05,714.62 758.37,1123.96 -189.49,372.76 -436.8,718.76 -738.33,1023.36" /><path
         id="path34"
         style="fill:#fadc43;fill-opacity:1;fill-rule:nonzero;stroke:none"
         d="m 3877.12,13961.8 c 573.21,800.5 1394.15,1341.2 2295.25,1577.3 -1022.09,281.2 -2151.78,169.2 -3142.37,-402.7 -966.34,-558 -1619.86,-1449.5 -1899.65,-2445.1 699.02,734.9 1667.32,1211.1 2746.77,1270.5" /><path
         id="path36"
         style="fill:#f8cc0a;fill-opacity:1;fill-rule:nonzero;stroke:none"
         d="m 1424.24,9716.06 c 53.88,117.52 113.54,233.72 179.43,348.04 374.06,647.7 897.95,1154.9 1502.49,1503.3 -0.58,697.8 176.71,1405 550.67,2052.8 68.45,118.6 142.13,232.5 220.29,341.6 -1079.45,-59.4 -2047.75,-535.6 -2746.77,-1270.5 -270.877,-963.5 -191.463,-2024.4 293.89,-2975.24" /><path
         id="path38"
         style="fill:#f9b00c;fill-opacity:1;fill-rule:nonzero;stroke:none"
         d="m 3471.08,9875.77 c -239.1,530.23 -364.42,1107.63 -364.92,1691.63 -604.54,-348.4 -1128.43,-855.6 -1502.49,-1503.3 -65.89,-114.32 -125.55,-230.52 -179.43,-348.04 32.57,-63.49 66.71,-126.47 102.76,-188.97 373.98,-647.81 897.87,-1155.04 1502.49,-1503.3 0.51,643.48 152.59,1278.85 441.59,1851.98" /><path
         id="path40"
         style="fill:#d29413;fill-opacity:1;fill-rule:nonzero;stroke:none"
         d="m 4867.97,7479.25 c -261.32,366.15 -463.72,777.1 -594.08,1218.86 -339.01,346.94 -608.53,746.6 -802.81,1177.66 -289,-573.13 -441.08,-1208.5 -441.59,-1851.98 561.53,-323.59 1192.83,-509.92 1838.48,-544.54" /><path
         id="path42"
         style="fill:#ae7b19;fill-opacity:1;fill-rule:nonzero;stroke:none"
         d="m 5159.88,8010.85 c -333.52,192.45 -629.58,424.85 -885.99,687.26 130.36,-441.76 332.76,-852.71 594.08,-1218.86 417.48,-22.23 840.85,19.04 1255.32,127.62 -329.69,91.17 -653.43,225.11 -963.41,403.98" /><path
         id="path44"
         style="fill:#c91840;fill-opacity:1;fill-rule:nonzero;stroke:none"
         d="M 8603.61,5774.2 C 8022.95,4878.6 7143.74,4279.4 6174.03,4032 7161.98,3793.7 8239.77,3919.6 9189.42,4467.8 10164.3,5030.7 10820.9,5932.99 11096.5,6939.17 10442.1,6293.36 9571.84,5865.87 8603.61,5774.2" /><path
         id="path46"
         style="fill:#a7193a;fill-opacity:1;fill-rule:nonzero;stroke:none"
         d="m 10878.2,9715.55 c -34.3,-67.79 -70.6,-135.08 -109,-201.56 -374,-647.8 -897.82,-1155.03 -1502.52,-1503.31 0.65,-697.87 -176.72,-1405.18 -550.67,-2052.82 -36.14,-62.47 -73.6,-123.66 -112.4,-183.66 968.23,91.67 1838.49,519.16 2492.89,1164.97 246,898.45 188.3,1879.78 -218.3,2776.38" /><path
         id="path48"
         style="fill:#881933;fill-opacity:1;fill-rule:nonzero;stroke:none"
         d="m 9190.1,11580.5 c -0.5,-589.2 -127.81,-1171.5 -371.14,-1705.56 292.89,-576.27 447.21,-1216.28 447.72,-1864.26 604.7,348.28 1128.52,855.51 1502.52,1503.31 38.4,66.48 74.7,133.77 109,201.56 -55.5,122.27 -117.3,242.93 -185.6,361.65 -374.2,647.7 -897.97,1154.9 -1502.5,1503.3" /><path
         id="path50"
         style="fill:#6b172c;fill-opacity:1;fill-rule:nonzero;stroke:none"
         d="m 7542.56,12110.2 c 240.86,-367.3 424.53,-775.5 538.07,-1211.9 301.53,-304.6 548.84,-650.6 738.33,-1023.36 243.33,534.06 370.64,1116.36 371.14,1705.56 -506.1,291.6 -1068.69,471.7 -1647.54,529.7" /><path
         id="path52"
         style="fill:#511423;fill-opacity:1;fill-rule:nonzero;stroke:none"
         d="m 7213.02,11567.1 c 325.42,-188 615.49,-413.9 867.61,-668.8 -113.54,436.4 -297.21,844.6 -538.07,1211.9 -470.26,47.3 -951.31,13.7 -1421.25,-106.3 373.95,-90.3 741.62,-234.7 1091.71,-436.8" /><path
         id="path54"
         style="fill:#5ac5eb;fill-opacity:1;fill-rule:nonzero;stroke:none"
         d="m 11151.2,12729.6 c 287.1,-972.7 215.2,-2049.5 -273,-3014.05 406.6,-896.6 464.3,-1877.93 218.3,-2776.38 754.6,744.63 1222.4,1778.99 1222.4,2922.67 0,1115.96 -445.3,2127.66 -1167.7,2867.76" /><path
         id="path56"
         style="fill:#4da4dd;fill-opacity:1;fill-rule:nonzero;stroke:none"
         d="m 8427.57,13962.7 c 74.94,-105.4 145.89,-215.1 211.84,-329.4 373.81,-647.8 551.18,-1355 550.69,-2052.8 604.53,-348.4 1128.3,-855.6 1502.5,-1503.3 68.3,-118.72 130.1,-239.38 185.6,-361.65 488.2,964.55 560.1,2041.35 273,3014.05 -699,716.3 -1657.43,1178.1 -2723.63,1233.1" /><path
         id="path58"
         style="fill:#4286ce;fill-opacity:1;fill-rule:nonzero;stroke:none"
         d="m 9190.1,11580.5 c 0.49,697.8 -176.88,1405 -550.69,2052.8 -65.95,114.3 -136.9,224 -211.84,329.4 -71.11,3.7 -142.87,5.6 -214.97,5.6 -747.95,0 -1449.28,-200.1 -2053.17,-549.5 557.14,-322.2 1031.23,-771.7 1383.13,-1308.6 578.85,-58 1141.44,-238.1 1647.54,-529.7" /><path
         id="path60"
         style="fill:#3c5a98;fill-opacity:1;fill-rule:nonzero;stroke:none"
         d="m 6121.31,12003.9 c 469.94,120 950.99,153.6 1421.25,106.3 -351.9,536.9 -825.99,986.4 -1383.13,1308.6 -561.02,-324.6 -1038.01,-778.1 -1390.67,-1320 447.65,43.2 904.74,13.1 1352.55,-94.9" /><path
         id="path62"
         style="fill:#37366d;fill-opacity:1;fill-rule:nonzero;stroke:none"
         d="m 6121.31,12003.9 c -447.81,108 -904.9,138.1 -1352.55,94.9 -228.08,-350.4 -404.04,-737.7 -517.01,-1151 243.68,240 521.41,453.4 831.39,632.4 333.43,192.5 682.61,332.8 1038.17,423.7" /><path
         id="path64"
         style="fill:#fadc43;fill-opacity:1;fill-rule:nonzero;stroke:none"
         d="M 1424.24,9716.06 C 938.887,10666.9 859.473,11727.8 1130.35,12691.3 429.902,11954.8 0,10958.5 0,9861.84 0,8736.23 453.035,7716.62 1186.69,6974.81 954.535,7864.47 1019.44,8831.88 1424.24,9716.06" /><path
         id="path66"
         style="fill:#f8cc0a;fill-opacity:1;fill-rule:nonzero;stroke:none"
         d="m 3700.33,5775.69 c -41.52,63.49 -81.72,128.63 -120.18,195.27 -373.96,647.64 -551.32,1354.96 -550.66,2052.83 -604.62,348.26 -1128.51,855.49 -1502.49,1503.3 -36.05,62.5 -70.19,125.48 -102.76,188.97 C 1019.44,8831.88 954.535,7864.47 1186.69,6974.81 1841.71,6312.27 2720.42,5871.82 3700.33,5775.69" /><path
         id="path68"
         style="fill:#f9b00c;fill-opacity:1;fill-rule:nonzero;stroke:none"
         d="m 3029.49,8023.79 c -0.66,-697.87 176.7,-1405.19 550.66,-2052.83 38.46,-66.64 78.66,-131.78 120.18,-195.27 133.52,-13.1 268.95,-20.07 405.96,-20.07 748.01,0 1449.11,200.08 2053.14,549.51 -510.05,295.08 -950.65,696.54 -1291.46,1174.12 -645.65,34.62 -1276.95,220.95 -1838.48,544.54" /><path
         id="path70"
         style="fill:#d29413;fill-opacity:1;fill-rule:nonzero;stroke:none"
         d="m 6123.29,7606.87 c -414.47,-108.58 -837.84,-149.85 -1255.32,-127.62 340.81,-477.58 781.41,-879.04 1291.46,-1174.12 505.6,292.42 942.86,689.76 1282.52,1161.85 -438.44,-24.89 -883.86,20.06 -1318.66,139.89" /><path
         id="path72"
         style="fill:#ae7b19;fill-opacity:1;fill-rule:nonzero;stroke:none"
         d="m 6123.29,7606.87 c 434.8,-119.83 880.22,-164.78 1318.66,-139.89 275.99,383.73 487.5,817.22 618.64,1284 -265.23,-278.65 -574.22,-524.8 -924.32,-726.88 -325.55,-187.97 -666.04,-326.06 -1012.98,-417.23" /><path
         id="path74"
         style="fill:#511423;fill-opacity:1;fill-rule:nonzero;stroke:none"
         d="m 1924.09,2470.7 h 501.19 L 3582.96,949.5 v 1521.2 h 536.48 V 0 H 3657.08 L 2460.58,1570.6 V 0 h -536.49 v 2470.7" /><path
         id="path76"
         style="fill:#511423;fill-opacity:1;fill-rule:nonzero;stroke:none"
         d="m 5418.25,2470.7 h 1881.2 V 1976.6 H 5961.79 v -526 H 7140.63 V 956.5 H 5961.79 V 0 h -543.54 v 2470.7" /><path
         id="path78"
         style="fill:#511423;fill-opacity:1;fill-rule:nonzero;stroke:none"
         d="m 9413.58,1224.8 c 271.77,0 430.6,162.3 430.6,374.1 v 7 c 0,243.6 -169.42,374.2 -441.19,374.2 h -420.01 v -755.3 z m -974.15,1245.9 h 1009.44 c 589.43,0 945.93,-349.5 945.93,-854.2 v -7 c 0,-571.8 -444.73,-868.301 -998.85,-868.301 H 8982.98 V 0 h -543.55 v 2470.7" /></g></g></svg>