<svg version="1" xmlns="http://www.w3.org/2000/svg" width="1557.333" height="1557.333" viewBox="0 0 1168.000000 1168.000000"><path d="M469.7 25.6c-.1.1-5.3.5-11.4.8-6.2.4-12.8.9-14.5 1.1-1.8.2-5.8.6-8.8 1-54.9 6.4-108.7 25.4-159.4 56.4-22.3 13.6-47.3 33.6-68.2 54.5-16.9 17-23.7 24.6-34.1 38.3-7.3 9.5-22.4 31.5-23.6 34.3-.4.8-2.4 4.4-4.6 8-12.3 20.6-27.7 55.8-34.7 79.2-2 7.1-3.7 10.8-6.2 13.5-1.8 2.1-4.9 5.6-6.9 7.8-11.2 12.4-29.6 37.2-40 54.1-6.3 10.1-20.8 38.2-26.4 50.9-8.7 20.2-21 60.6-23.4 77-.2 1.1-1 5.8-1.9 10.5-.8 4.7-1.8 11.2-2.2 14.5-.3 3.3-.8 6.9-1 8C0 548.1.1 608 2.5 620.9c.1.9.6 4.1.9 7.2.4 3.1.8 6.5 1 7.5.2 1.1.9 5.3 1.6 9.4.7 4.1 2.1 11.3 3.2 16 1.1 4.7 2.1 9.2 2.3 10 1.2 5.6 4.2 16.3 7.7 27 17.4 54.1 48.8 107.1 87.1 146.8l6.1 6.3 4.8 16.1c5 16.5 5.3 17.5 13.3 36.8 12.3 29.6 35 68.5 51.6 88.5 1 1.1 4.6 5.6 8 10 9.6 12 39.8 41.8 53.9 53.1 37.2 29.7 75.6 50.9 120 66.2 12.8 4.4 37.1 11.1 45.5 12.6 1.7.3 8 1.4 14 2.5 21.3 3.7 40.9 5.4 64 5.4 14.4.1 32-.7 41.5-1.8 1.9-.3 5.8-.7 8.5-1 6.3-.7 20.8-3.1 30.5-5.1 4.1-.9 8.5-1.8 9.7-2 1.2-.2 3.2-.8 4.4-1.3 1.5-.5 5.2-.1 10.4 1 4.4 1 9.6 2 11.5 2.4 1.9.3 4.6.7 6 1 2.8.5 6.5 1.1 12.7 2 6.7.9 9.3 1.2 17.3 2 4.1.4 9.3.9 11.5 1.1 5.3.5 43.3.5 51-.1 8.8-.6 23.6-2.2 28.5-3 1.4-.2 5.7-.9 9.5-1.5 35.3-5.4 77.1-19.1 112-36.8 17.4-8.8 31.8-17.5 51.5-31.3 27.6-19.1 59.7-50.2 80.9-78.3 2.9-3.9 5.6-7.3 6-7.6.4-.3 4.5-6.4 9.2-13.5 15.4-23.4 26.5-44.3 36.7-69.2 5.1-12.2 14.2-39.2 14.2-41.7 0-.8 1.7-3.2 3.8-5.4 39.9-41.8 66.7-82.6 85.2-130.2 2.9-7.4 5.7-14.4 6.1-15.5 1.4-3.2 8.4-26.4 9.3-30.6.7-3.1 1-4.8 3.4-14.9 1.1-4.7 2.3-10.1 2.6-12 .3-1.9.8-4.4 1-5.6.2-1.2.7-4.5 1.1-7.5.3-3 .8-6.1 1-6.9.4-1.7 1.1-8.3 2.2-21 1.4-17.9.8-57.5-1.3-74.2-.7-6-2.5-18.9-3-21.3-.2-1-.6-3.7-.9-6-.4-2.2-1-5.6-1.5-7.5-.5-1.9-1.9-7.6-3.1-12.5-9.1-38.4-26.5-80.2-46.7-112.5-4-6.3-7.8-12.4-8.5-13.4-2-3.3-18.3-25.1-22.5-30.1-3.5-4.3-15.1-17.3-18.9-21.3-1.8-1.8-3.3-3.9-3.3-4.6 0-.7-.5-1.7-1.2-2.4s-.9-1.2-.5-1.2c.9 0-7.1-22.3-13.1-36.6-9.3-22-19.1-40.5-31.8-60.1-6.1-9.4-20.5-29.6-22.4-31.3-.3-.3-2.5-3-5-6-6.8-8.4-11.5-13.4-24-26-39.3-39.5-87.1-70.2-139.4-89.6-11.5-4.3-32-10.9-36.8-11.8-1.3-.2-3-.7-3.8-1-.8-.3-2.6-.8-4-1-1.4-.3-6.8-1.4-12-2.5-5.2-1.2-11.1-2.3-13-2.6-2-.3-4.5-.7-5.6-.9-1.1-.2-4.7-.7-7.9-1.1-3.3-.4-6.7-.9-7.6-1-16.5-3-71.7-2.7-93.4.5-3.3.5-8.1 1.1-10.7 1.5-5.2.6-31.6 5.9-36.3 7.3-2.2.6-5.5.2-12-1.4-4.9-1.3-10.6-2.6-12.5-2.9-1.9-.3-4.2-.8-5-1-.8-.2-2.8-.7-4.5-1-15.5-2.7-18.5-3.1-26.5-4-2.5-.3-6-.7-7.9-.9-7.7-1.1-49.6-2.7-50.4-2zM590 377.5c61.3 15.9 125 52.2 171.1 97.5 4.6 4.4 6.7 9.2 8.3 18.5.2 1.6 1.4 7.7 2.4 13.5 2.4 12.5 2.9 15.6 3.7 23.5.4 3.3.8 7.1 1.1 8.5 2.2 13.9 2.1 60.1-.1 78.7-1.1 8.8-2.6 20-3.1 22.8-.3 1.6-.7 3.9-.8 5-.2 1.1-.6 3.3-.9 5-.4 1.6-.9 4.4-1.2 6.1-.2 1.7-1.8 8.4-3.5 15l-3 11.8-9.2 9c-34.6 33.5-73.5 59.8-115.3 78.1-7.1 3.1-13.9 6-15 6.5-3.7 1.6-18.9 6.8-27.5 9.5-4.7 1.5-9.8 3.1-11.4 3.6-4.6 1.4-6.3 1.2-19.4-3.1-25.8-8.3-56-21.8-78.1-34.7-9.5-5.5-33.1-21-34.1-22.3-.3-.4-2.1-1.7-4.1-3.1-5.3-3.5-23.3-18.5-29.5-24.4-1.1-1.1-4.5-4.3-7.5-7.1s-5.9-5.7-6.6-6.5c-1.3-1.6-7.8-26.1-8.8-33.1-.3-2.4-1-5.9-1.5-7.8-.5-1.9-1.1-5.5-1.5-8-.3-2.5-.8-5.6-1-7-4.1-23.3-5.1-69.9-2-94.5.2-1.7.7-5.5 1-8.5.6-5.6 1.4-10.9 2-14.5 1.7-10 4.1-21.7 6.2-30.2l2.5-10.2 6.7-6.3c37.6-35.4 83.3-63.7 132.4-81.9 7-2.6 18.8-6.6 22.2-7.5.6-.2 3.9-1.2 7.5-2.2 8.4-2.5 7.2-2.6 18 .3z"/></svg>