<?xml version="1.0" encoding="UTF-8" standalone="no"?>
<!-- Created with Inkscape (http://www.inkscape.org/) -->

<svg
   xmlns:dc="http://purl.org/dc/elements/1.1/"
   xmlns:cc="http://creativecommons.org/ns#"
   xmlns:rdf="http://www.w3.org/1999/02/22-rdf-syntax-ns#"
   xmlns:svg="http://www.w3.org/2000/svg"
   xmlns="http://www.w3.org/2000/svg"
   xmlns:sodipodi="http://sodipodi.sourceforge.net/DTD/sodipodi-0.dtd"
   xmlns:inkscape="http://www.inkscape.org/namespaces/inkscape"
   version="1.1"
   id="svg16998"
   xml:space="preserve"
   width="317.59479"
   height="363.1044"
   viewBox="0 0 317.59478 363.1044"
   sodipodi:docname="team_alt.svg"
   inkscape:version="0.92.4 (5da689c313, 2019-01-14)"><metadata
     id="metadata17004"><rdf:RDF><cc:Work
         rdf:about=""><dc:format>image/svg+xml</dc:format><dc:type
           rdf:resource="http://purl.org/dc/dcmitype/StillImage" /><dc:title></dc:title></cc:Work></rdf:RDF></metadata><defs
     id="defs17002"><clipPath
       clipPathUnits="userSpaceOnUse"
       id="clipPath17016"><path
         d="M 0,500 H 500 V 0 H 0 Z"
         id="path17014"
         inkscape:connector-curvature="0" /></clipPath><clipPath
       clipPathUnits="userSpaceOnUse"
       id="clipPath17242"><path
         d="m 365.65,265.228 h 20.855 V 238.705 H 365.65 Z"
         id="path17240"
         inkscape:connector-curvature="0" /></clipPath><clipPath
       clipPathUnits="userSpaceOnUse"
       id="clipPath17262"><path
         d="M 361.592,232.098 H 385.13 V 216.707 H 361.592 Z"
         id="path17260"
         inkscape:connector-curvature="0" /></clipPath><clipPath
       clipPathUnits="userSpaceOnUse"
       id="clipPath17286"><path
         d="m 376.487,218.326 h 7.865 V 112.261 h -7.865 z"
         id="path17284"
         inkscape:connector-curvature="0" /></clipPath><clipPath
       clipPathUnits="userSpaceOnUse"
       id="clipPath17342"><path
         d="m 260.187,224.21 h 14.945 V 112.451 h -14.945 z"
         id="path17340"
         inkscape:connector-curvature="0" /></clipPath><clipPath
       clipPathUnits="userSpaceOnUse"
       id="clipPath17394"><path
         d="m 225.184,246.884 h 17.31 v -12.098 h -17.31 z"
         id="path17392"
         inkscape:connector-curvature="0" /></clipPath><clipPath
       clipPathUnits="userSpaceOnUse"
       id="clipPath17410"><path
         d="m 223.66,266.129 h 6.321 v -9.733 h -6.321 z"
         id="path17408"
         inkscape:connector-curvature="0" /></clipPath><clipPath
       clipPathUnits="userSpaceOnUse"
       id="clipPath17426"><path
         d="m 272.478,265.061 h 4.076 v -11.764 h -4.076 z"
         id="path17424"
         inkscape:connector-curvature="0" /></clipPath><clipPath
       clipPathUnits="userSpaceOnUse"
       id="clipPath17442"><path
         d="m 257.11,246.992 h 20.137 V 218.104 H 257.11 Z"
         id="path17440"
         inkscape:connector-curvature="0" /></clipPath><clipPath
       clipPathUnits="userSpaceOnUse"
       id="clipPath17510"><path
         d="m 154.811,234.667 h 13.776 v -58.884 h -13.776 z"
         id="path17508"
         inkscape:connector-curvature="0" /></clipPath><clipPath
       clipPathUnits="userSpaceOnUse"
       id="clipPath17558"><path
         d="M 99.4946,282.83 H 195.36 V 226.493 H 99.4946 Z"
         id="path17556"
         inkscape:connector-curvature="0" /></clipPath><clipPath
       clipPathUnits="userSpaceOnUse"
       id="clipPath17678"><path
         d="M 0,500 H 500 V 0 H 0 Z"
         id="path17676"
         inkscape:connector-curvature="0" /></clipPath></defs><sodipodi:namedview
     pagecolor="#ffffff"
     bordercolor="#666666"
     borderopacity="1"
     objecttolerance="10"
     gridtolerance="10"
     guidetolerance="10"
     inkscape:pageopacity="0"
     inkscape:pageshadow="2"
     inkscape:window-width="1120"
     inkscape:window-height="770"
     id="namedview17000"
     showgrid="false"
     fit-margin-top="0"
     fit-margin-left="0"
     fit-margin-right="0"
     fit-margin-bottom="0"
     inkscape:zoom="0.708"
     inkscape:cx="109.98358"
     inkscape:cy="220.20298"
     inkscape:window-x="2677"
     inkscape:window-y="135"
     inkscape:window-maximized="0"
     inkscape:current-layer="g17006" /><g
     id="g17006"
     inkscape:groupmode="layer"
     inkscape:label="2456060"
     transform="matrix(1.3333333,0,0,-1.3333333,-284.23636,497.71292)"><g
       id="g17078"
       transform="translate(337.2744,347.7256)"><path
         d="m 0,0 h -57.984 c -1.874,0 -3.393,-1.519 -3.393,-3.393 v -37.365 c 0,-1.874 1.519,-3.393 3.393,-3.393 H 0 c 1.874,0 3.393,1.519 3.393,3.393 V -3.393 C 3.393,-1.519 1.874,0 0,0"
         style="fill:#d2d5fb;fill-opacity:1;fill-rule:nonzero;stroke:none"
         id="path17080"
         inkscape:connector-curvature="0" /></g><g
       id="g17082"
       transform="translate(340.667,341.3047)"><path
         d="m 0,0 v 3.028 c 0,1.874 -1.519,3.393 -3.393,3.393 h -57.984 c -1.874,0 -3.393,-1.519 -3.393,-3.393 V 0 Z"
         style="fill:#babfe8;fill-opacity:1;fill-rule:nonzero;stroke:none"
         id="path17084"
         inkscape:connector-curvature="0" /></g><g
       id="g17086"
       transform="translate(289.4229,335.1221)"><path
         d="m 0,0 h -8.907 c -0.446,0 -0.806,-0.361 -0.806,-0.806 v -8.876 c 0,-0.445 0.36,-0.806 0.806,-0.806 H 0 c 0.445,0 0.807,0.361 0.807,0.806 v 8.876 C 0.807,-0.361 0.445,0 0,0"
         style="fill:#ebedff;fill-opacity:1;fill-rule:nonzero;stroke:none"
         id="path17088"
         inkscape:connector-curvature="0" /></g><g
       id="g17090"
       transform="translate(305.0195,335.1221)"><path
         d="m 0,0 h -8.908 c -0.445,0 -0.806,-0.361 -0.806,-0.806 v -8.876 c 0,-0.445 0.361,-0.806 0.806,-0.806 H 0 c 0.445,0 0.806,0.361 0.806,0.806 v 8.876 C 0.806,-0.361 0.445,0 0,0"
         style="fill:#ffffff;fill-opacity:1;fill-rule:nonzero;stroke:none"
         id="path17092"
         inkscape:connector-curvature="0" /></g><g
       id="g17094"
       transform="translate(320.5293,335.1221)"><path
         d="m 0,0 h -8.907 c -0.446,0 -0.806,-0.361 -0.806,-0.806 v -8.876 c 0,-0.445 0.36,-0.806 0.806,-0.806 H 0 c 0.445,0 0.806,0.361 0.806,0.806 v 8.876 C 0.806,-0.361 0.445,0 0,0"
         style="fill:#babfe8;fill-opacity:1;fill-rule:nonzero;stroke:none"
         id="path17096"
         inkscape:connector-curvature="0" /></g><g
       id="g17098"
       transform="translate(335.5225,335.1221)"><path
         d="m 0,0 h -8.908 c -0.445,0 -0.806,-0.361 -0.806,-0.806 v -8.876 c 0,-0.445 0.361,-0.806 0.806,-0.806 H 0 c 0.445,0 0.806,0.361 0.806,0.806 v 8.876 C 0.806,-0.361 0.445,0 0,0"
         style="fill:#ebedff;fill-opacity:1;fill-rule:nonzero;stroke:none"
         id="path17100"
         inkscape:connector-curvature="0" /></g><g
       id="g17102"
       transform="translate(289.4229,320.4893)"><path
         d="m 0,0 h -8.907 c -0.446,0 -0.806,-0.36 -0.806,-0.806 v -8.876 c 0,-0.444 0.36,-0.805 0.806,-0.805 H 0 c 0.445,0 0.807,0.361 0.807,0.805 v 8.876 C 0.807,-0.36 0.445,0 0,0"
         style="fill:#babfe8;fill-opacity:1;fill-rule:nonzero;stroke:none"
         id="path17104"
         inkscape:connector-curvature="0" /></g><g
       id="g17106"
       transform="translate(305.0195,320.4893)"><path
         d="m 0,0 h -8.908 c -0.445,0 -0.806,-0.36 -0.806,-0.806 v -8.876 c 0,-0.444 0.361,-0.805 0.806,-0.805 H 0 c 0.445,0 0.806,0.361 0.806,0.805 v 8.876 C 0.806,-0.36 0.445,0 0,0"
         style="fill:#ebedff;fill-opacity:1;fill-rule:nonzero;stroke:none"
         id="path17108"
         inkscape:connector-curvature="0" /></g><g
       id="g17110"
       transform="translate(320.5293,320.4893)"><path
         d="m 0,0 h -8.907 c -0.446,0 -0.806,-0.36 -0.806,-0.806 v -8.876 c 0,-0.444 0.36,-0.805 0.806,-0.805 H 0 c 0.445,0 0.806,0.361 0.806,0.805 v 8.876 C 0.806,-0.36 0.445,0 0,0"
         style="fill:#ffffff;fill-opacity:1;fill-rule:nonzero;stroke:none"
         id="path17112"
         inkscape:connector-curvature="0" /></g><g
       id="g17114"
       transform="translate(335.5225,320.4893)"><path
         d="m 0,0 h -8.908 c -0.445,0 -0.806,-0.36 -0.806,-0.806 v -8.876 c 0,-0.444 0.361,-0.805 0.806,-0.805 H 0 c 0.445,0 0.806,0.361 0.806,0.805 v 8.876 C 0.806,-0.36 0.445,0 0,0"
         style="fill:#ebedff;fill-opacity:1;fill-rule:nonzero;stroke:none"
         id="path17116"
         inkscape:connector-curvature="0" /></g><path
       d="M 435.723,213.2 H 229.676 v -7.522 h 206.047 z"
       style="fill:#d2d5fb;fill-opacity:1;fill-rule:nonzero;stroke:none"
       id="path17118"
       inkscape:connector-curvature="0" /><path
       d="M 419.068,102.103 H 242.212 v 103.575 h 176.856 z"
       style="fill:#d2d5fb;fill-opacity:1;fill-rule:nonzero;stroke:none"
       id="path17120"
       inkscape:connector-curvature="0" /><path
       d="M 419.068,194.631 H 242.212 v 11.047 h 176.856 z"
       style="fill:#babfe8;fill-opacity:1;fill-rule:nonzero;stroke:none"
       id="path17122"
       inkscape:connector-curvature="0" /><g
       id="g17124"
       transform="translate(410.7559,350.0737)"><path
         d="m 0,0 c 0,-12.819 -10.393,-23.211 -23.212,-23.211 -12.819,0 -23.211,10.392 -23.211,23.211 0,12.819 10.392,23.211 23.211,23.211 C -10.393,23.211 0,12.819 0,0"
         style="fill:#d2d5fb;fill-opacity:1;fill-rule:nonzero;stroke:none"
         id="path17126"
         inkscape:connector-curvature="0" /></g><g
       id="g17128"
       transform="translate(404.6396,350.0737)"><path
         d="m 0,0 c 0,-9.441 -7.654,-17.095 -17.096,-17.095 -9.441,0 -17.094,7.654 -17.094,17.095 0,9.442 7.653,17.096 17.094,17.096 C -7.654,17.096 0,9.442 0,0"
         style="fill:#ebedff;fill-opacity:1;fill-rule:nonzero;stroke:none"
         id="path17130"
         inkscape:connector-curvature="0" /></g><g
       id="g17132"
       transform="translate(382.168,342.6001)"><path
         d="m 0,0 c -0.214,0 -0.426,0.09 -0.577,0.264 -0.276,0.319 -0.239,0.8 0.079,1.076 l 5.301,4.578 v 12.047 c 0,0.421 0.341,0.763 0.762,0.763 0.421,0 0.762,-0.342 0.762,-0.763 V 5.569 C 6.327,5.348 6.231,5.137 6.063,4.992 L 0.498,0.186 C 0.354,0.062 0.177,0 0,0"
         style="fill:#d2d5fb;fill-opacity:1;fill-rule:nonzero;stroke:none"
         id="path17134"
         inkscape:connector-curvature="0" /></g><g
       id="g17136"
       transform="translate(320.8887,231.5742)"><path
         d="m 0,0 h -67.159 c -3.369,0 -6.099,2.73 -6.099,6.099 v 37.028 c 0,3.368 2.73,6.098 6.099,6.098 H 0 c 3.368,0 6.099,-2.73 6.099,-6.098 V 6.099 C 6.099,2.73 3.368,0 0,0"
         style="fill:#d2d5fb;fill-opacity:1;fill-rule:nonzero;stroke:none"
         id="path17138"
         inkscape:connector-curvature="0" /></g><g
       id="g17140"
       transform="translate(322.96,280.4312)"><path
         d="m 0,0 c -2.347,-0.849 -4.027,-3.09 -4.027,-5.73 v -37.028 c 0,-2.64 1.68,-4.882 4.027,-5.731 2.347,0.849 4.027,3.091 4.027,5.731 V -5.73 C 4.027,-3.09 2.347,-0.849 0,0"
         style="fill:#babfe8;fill-opacity:1;fill-rule:nonzero;stroke:none"
         id="path17142"
         inkscape:connector-curvature="0" /></g><g
       id="g17144"
       transform="translate(300.9287,218.7578)"><path
         d="M 0,0 H -8.847 V 33.401 H -26.448 V 0 -5.16 H 0 c 1.425,0 2.58,1.155 2.58,2.58 C 2.58,-1.155 1.425,0 0,0"
         style="fill:#babfe8;fill-opacity:1;fill-rule:nonzero;stroke:none"
         id="path17146"
         inkscape:connector-curvature="0" /></g><g
       id="g17148"
       transform="translate(300.7822,218.7578)"><path
         d="M 0,0 H -8.7 V 33.401 H -26.302 V 0 c 0,-2.85 2.311,-5.16 5.16,-5.16 H 0.146 c 1.471,0 2.655,1.231 2.577,2.719 C 2.649,-1.046 1.397,0 0,0"
         style="fill:#babfe8;fill-opacity:1;fill-rule:nonzero;stroke:none"
         id="path17150"
         inkscape:connector-curvature="0" /></g><g
       id="g17152"
       transform="translate(303.5088,216.1777)"><path
         d="m 0,0 c 0,1.425 -1.155,2.58 -2.58,2.58 h -8.847 v 33.401 h -5.967 V 2.58 c 0,-2.85 2.31,-5.16 5.161,-5.16 H -2.58 C -1.155,-2.58 0,-1.425 0,0"
         style="fill:#9ba3d3;fill-opacity:1;fill-rule:nonzero;stroke:none"
         id="path17154"
         inkscape:connector-curvature="0" /></g><g
       id="g17156"
       transform="translate(303.8477,277.1035)"><path
         d="m 0,0 h -39.146 c -0.945,0 -1.71,-0.766 -1.71,-1.711 0,-0.945 0.765,-1.711 1.71,-1.711 H 0 c 0.945,0 1.711,0.766 1.711,1.711 C 1.711,-0.766 0.945,0 0,0"
         style="fill:#babfe8;fill-opacity:1;fill-rule:nonzero;stroke:none"
         id="path17158"
         inkscape:connector-curvature="0" /></g><path
       d="m 411.95991,228.896 h -65.918 v -15.808 h 65.918 z"
       style="fill:#babfe8;fill-opacity:1;fill-rule:nonzero;stroke:none"
       id="path17160"
       inkscape:connector-curvature="0" /><path
       d="m 407.66891,239.94 h -67.964 v -11.045 h 67.964 z"
       style="fill:#d2d5fb;fill-opacity:1;fill-rule:nonzero;stroke:none"
       id="path17162"
       inkscape:connector-curvature="0" /><path
       d="m 411.47391,253.791 h -65.148 v -13.834 h 65.148 z"
       style="fill:#d2d5fb;fill-opacity:1;fill-rule:nonzero;stroke:none"
       id="path17164"
       inkscape:connector-curvature="0" /><path
       d="m 411.47391,244.804 h -65.148 v -4.848 h 65.148 z"
       style="fill:#babfe8;fill-opacity:1;fill-rule:nonzero;stroke:none"
       id="path17166"
       inkscape:connector-curvature="0" /><g
       id="g20191"
       transform="translate(-168.43221)"><g
         transform="translate(584.81841,282.2129)"
         id="g17212"><path
           inkscape:connector-curvature="0"
           id="path17214"
           style="fill:#ba95f4;fill-opacity:1;fill-rule:nonzero;stroke:none"
           d="m 0,0 c 3.284,-0.562 18.907,-3.235 21.962,-5.36 2.625,-1.826 15.337,-39.012 12.656,-40.948 -2.68,-1.935 -18.611,-3.722 -18.611,-3.722 l 1.786,-13.424 -18.233,-4.149 c -4.376,-0.996 -8.91,-1.093 -13.325,-0.288 l -15.345,2.799 3.127,38.737 -20.421,-11.729 c -1.488,-0.775 -3.321,-0.221 -4.128,1.249 l -21.755,37.618 6.15,2.904 18.712,-22.448 18.017,14.294 c 0,0 4.057,2.829 18.985,4.094 z" /></g><g
         transform="translate(518.22461,285.5029)"
         id="g17216"><path
           inkscape:connector-curvature="0"
           id="path17218"
           style="fill:#ffa683;fill-opacity:1;fill-rule:nonzero;stroke:none"
           d="m 0,0 c 0,0 -3.161,6.48 -4.292,6.802 -1.131,0.322 -0.1,-2.614 -0.1,-2.614 0,0 -3.938,3.019 -7.049,2.59 -3.111,-0.428 5.743,-6.032 6.619,-9.047 0,0 5.014,2.248 4.822,2.269" /></g><g
         transform="translate(535.37401,237.0186)"
         id="g17220"><path
           inkscape:connector-curvature="0"
           id="path17222"
           style="fill:#ffffff;fill-opacity:1;fill-rule:nonzero;stroke:none"
           d="m 0,0 h 32.429 c 1.748,0 3.165,1.417 3.165,3.165 v 19.274 c 0,1.748 -1.417,3.165 -3.165,3.165 H 0 c -1.748,0 -3.165,-1.417 -3.165,-3.165 V 3.165 C -3.165,1.417 -1.748,0 0,0" /></g><g
         transform="translate(552.83011,237.0186)"
         id="g17224"><path
           inkscape:connector-curvature="0"
           id="path17226"
           style="fill:#ffffff;fill-opacity:1;fill-rule:nonzero;stroke:none"
           d="m 0,0 h 27.439 c 1.48,0 2.679,1.199 2.679,2.678 V 2.385 c 0,1.479 -1.199,2.678 -2.679,2.678 H 0 c -1.479,0 -2.679,-1.199 -2.679,-2.678 V 2.678 C -2.679,1.199 -1.479,0 0,0" /></g><g
         transform="translate(574.10061,242.082)"
         id="g17228"><path
           inkscape:connector-curvature="0"
           id="path17230"
           style="fill:#e6e1ef;fill-opacity:1;fill-rule:nonzero;stroke:none"
           d="m 0,0 v -1.898 c 0,-1.741 -1.406,-3.153 -3.144,-3.165 h -3.131 c 1.738,0.012 3.141,1.424 3.141,3.165 V 0 Z" /></g><g
         transform="translate(545.63871,248.252)"
         id="g17232"><path
           inkscape:connector-curvature="0"
           id="path17234"
           style="fill:#e6e1ef;fill-opacity:1;fill-rule:nonzero;stroke:none"
           d="M 0,0 C 0,2.443 1.979,4.423 4.423,4.423 6.865,4.423 8.846,2.443 8.846,0 8.846,-2.442 6.865,-4.423 4.423,-4.423 1.979,-4.423 0,-2.442 0,0" /></g><g
         transform="translate(217.22561)"
         id="g17236"><g
           id="g17238" /><g
           id="g17250"><g
             style="opacity:0.41999799"
             id="g17248"
             clip-path="url(#clipPath17242)"><g
               id="g17246"
               transform="translate(382.8887,249.2832)"><path
                 inkscape:connector-curvature="0"
                 id="path17244"
                 style="fill:#7327cc;fill-opacity:1;fill-rule:nonzero;stroke:none"
                 d="M 0,0 -3.7,15.945 3.415,-2.639 C 4.064,-4.247 3.075,-6.046 1.37,-6.36 l -18.609,-4.218 14.56,5.689 C -0.636,-4.222 0.537,-2.081 0,0" /></g></g></g></g><g
         transform="translate(600.56841,232.0977)"
         id="g17252"><path
           inkscape:connector-curvature="0"
           id="path17254"
           style="fill:#ba95f4;fill-opacity:1;fill-rule:nonzero;stroke:none"
           d="M 0,0 -21.751,-1.893 -22.05,5.582 0.916,10.825 Z" /></g><g
         transform="translate(217.22561)"
         id="g17256"><g
           id="g17258" /><g
           id="g17270"><g
             style="opacity:0.41999799"
             id="g17268"
             clip-path="url(#clipPath17262)"><g
               id="g17266"
               transform="translate(374.918,228.8818)"><path
                 inkscape:connector-curvature="0"
                 id="path17264"
                 style="fill:#7327cc;fill-opacity:1;fill-rule:nonzero;stroke:none"
                 d="m 0,0 c 0.509,-0.231 1.117,-6.487 1.569,-12.175 l 8.643,1.967 L 8.425,3.216 -13.326,1.323 C -13.326,1.323 -0.939,0.427 0,0" /></g></g></g></g><g
         transform="translate(578.76471,232.0215)"
         id="g17272"><path
           inkscape:connector-curvature="0"
           id="path17274"
           style="fill:#ffa683;fill-opacity:1;fill-rule:nonzero;stroke:none"
           d="m 0,0 c 0,0 -3.822,-1.242 -8.592,3.545 -0.509,0.51 -0.15,1.386 0.57,1.392 l 7.721,0.061 z" /></g><g
         transform="translate(600.84571,112.2598)"
         id="g17276"><path
           inkscape:connector-curvature="0"
           id="path17278"
           style="fill:#5725a5;fill-opacity:1;fill-rule:nonzero;stroke:none"
           d="m 0,0 -10.767,0.162 c -2.054,7.43 -12.326,85.731 -12.326,85.731 l -13.4,-28.584 6.572,-57.116 -10.056,-0.062 c 0,0 -15.794,49.369 -15.794,59.64 0,7.833 7.893,33.158 11.647,44.774 l 0.301,0.077 14.034,-2.557 c 4.409,-0.81 8.943,-0.71 13.322,0.287 l 16.413,3.73 0.031,-0.016 C 1.606,84.626 0,0 0,0" /></g><g
         transform="translate(217.22561)"
         id="g17280"><g
           id="g17282" /><g
           id="g17294"><g
             style="opacity:0.35000604"
             id="g17292"
             clip-path="url(#clipPath17286)"><g
               id="g17290"
               transform="translate(383.6201,112.2607)"><path
                 inkscape:connector-curvature="0"
                 id="path17288"
                 style="fill:#441982;fill-opacity:1;fill-rule:nonzero;stroke:none"
                 d="m 0,0 c 0,0.001 0.775,38.648 0.73,69.972 v 0.077 c -0.001,0.684 -0.002,1.366 -0.004,2.044 0,0.284 -0.001,0.564 -0.002,0.847 -0.002,0.415 -0.003,0.831 -0.004,1.245 -0.052,13.586 -0.26,25.498 -0.746,31.879 l -7.108,-1.617 0.001,-0.001 L -3.78,0.16 -0.135,0.01 Z" /></g></g></g></g><g
         transform="translate(568.17191,112.3564)"
         id="g17296"><path
           inkscape:connector-curvature="0"
           id="path17298"
           style="fill:#441982;fill-opacity:1;fill-rule:nonzero;stroke:none"
           d="M 0,0 2.755,0.097 -3.819,57.212 9.581,85.796 -10.026,57.884 Z" /></g><g
         transform="translate(561.69141,112.4395)"
         id="g17300"><path
           inkscape:connector-curvature="0"
           id="path17302"
           style="fill:#441982;fill-opacity:1;fill-rule:nonzero;stroke:none"
           d="m 0,0 c -2.409,-4.826 -13.679,-7.178 -13.679,-7.178 0,0 -0.824,-1.424 0.445,-3.244 1.268,-1.82 13.114,-0.815 14.601,-0.499 1.487,0.317 2.519,1.512 2.519,1.512 0,0 0.986,-1.091 1.54,-1.363 0.553,-0.273 3.582,0.306 3.582,0.306 C 9.735,-8.544 9.091,-1.176 8.896,0 Z" /></g><g
         transform="translate(590.74901,112.4395)"
         id="g17304"><path
           inkscape:connector-curvature="0"
           id="path17306"
           style="fill:#441982;fill-opacity:1;fill-rule:nonzero;stroke:none"
           d="m 0,0 c -2.409,-4.826 -13.679,-7.178 -13.679,-7.178 0,0 -0.824,-1.424 0.445,-3.244 1.268,-1.82 13.115,-0.815 14.601,-0.499 1.487,0.317 2.519,1.512 2.519,1.512 0,0 0.986,-1.091 1.54,-1.363 0.553,-0.273 3.582,0.306 3.582,0.306 C 9.735,-8.544 9.091,-1.176 8.896,0 Z" /></g><g
         transform="translate(583.50681,291.3286)"
         id="g17308"><path
           inkscape:connector-curvature="0"
           id="path17310"
           style="fill:#ffa683;fill-opacity:1;fill-rule:nonzero;stroke:none"
           d="m 0,0 v -9.021 l -5.314,-3.8 -3.583,3.452 0.084,3.7 c 0.448,-0.093 0.912,-0.139 1.382,-0.139 3.46,0 6.372,2.472 7.206,5.824 C -0.147,0 -0.077,0 0,0" /></g><g
         transform="translate(585.65331,297.1504)"
         id="g17312"><path
           inkscape:connector-curvature="0"
           id="path17314"
           style="fill:#ffa683;fill-opacity:1;fill-rule:nonzero;stroke:none"
           d="m 0,0 c -1.051,1.122 -2.268,0.214 -2.268,0.214 0,0 -0.016,-0.017 -0.046,-0.051 -3.117,0.739 -7.461,4.046 -7.461,4.046 -2.933,-1.771 -7.251,-3.366 -7.251,-3.366 v -4.678 c 0,-4.306 3.334,-7.797 7.447,-7.797 3.463,0 6.373,2.475 7.206,5.827 C 0.19,-6.158 1.036,-1.107 0,0" /></g><g
         transform="translate(583.52151,287.8066)"
         id="g17316"><path
           inkscape:connector-curvature="0"
           id="path17318"
           style="fill:#441982;fill-opacity:1;fill-rule:nonzero;stroke:none"
           d="m 0,0 -0.015,0.008 v 3.514 c 2.386,-0.046 3.151,4.742 2.147,5.824 -1.05,1.119 -2.271,0.216 -2.271,0.216 0,0 -0.015,-0.023 -0.046,-0.054 -3.113,0.741 -7.438,2.444 -7.438,2.444 -3.76,-2.216 -7.275,-1.764 -7.275,-1.764 -1.089,0.262 -5.33,1.675 -5.16,7.167 0.17,5.545 15.084,12.01 23.333,2.966 C 6.504,16.791 8.403,1.467 0,0" /></g><g
         transform="translate(576.07621,285.5205)"
         id="g17320"><path
           inkscape:connector-curvature="0"
           id="path17322"
           style="fill:#f48260;fill-opacity:1;fill-rule:nonzero;stroke:none"
           d="M 0,0 C -0.475,0 -0.934,0.062 -1.384,0.151 L -1.467,-3.56 0.842,-5.788 v 4.351 c 5.955,0 6.364,7.261 6.364,7.261 C 6.372,2.472 3.46,0 0,0" /></g><g
         transform="translate(577.36621,288.4414)"
         id="g17324"><path
           inkscape:connector-curvature="0"
           id="path17326"
           style="fill:#441982;fill-opacity:1;fill-rule:nonzero;stroke:none"
           d="m 0,0 c -3.092,-1.441 -5.233,-0.283 -5.808,0.438 -0.133,0.167 -0.118,0.407 0.027,0.564 l 0.525,0.571 c 0.595,0.653 2.516,0.413 3.318,0.413 0.848,0 1.488,-0.723 1.956,-1.219 C 0.209,0.563 0.239,0.111 0,0 m 6.017,8.927 c 0,0 -0.016,-0.023 -0.046,-0.054 C 5.546,8.974 5.09,9.128 4.626,9.313 4.772,7.427 4.836,2.717 2.299,0.176 1.689,0.96 0.262,2.623 -1.068,2.883 -2.32,3.127 -4.206,2.951 -5.179,2.831 -5.58,2.781 -5.954,2.607 -6.248,2.329 L -7.545,1.104 c -0.324,0.431 -0.625,0.927 -0.881,1.513 0.927,-3.205 3.769,-5.538 7.136,-5.538 3.46,0 6.372,2.472 7.206,5.824 0.217,-0.031 0.425,-0.008 0.618,0.038 v 0.008 z" /></g></g><g
       id="g18988"
       transform="translate(80.508477)"><g
         transform="translate(197.80039,112.4512)"
         id="g17328"><path
           inkscape:connector-curvature="0"
           id="path17330"
           style="fill:#5725a5;fill-opacity:1;fill-rule:nonzero;stroke:none"
           d="M 0,0 C -1.33,39.47 -6.541,111.758 -6.541,111.758 H -45.9 c 0,0 -5.211,-72.288 -6.541,-111.758 h 11.197 c 0,0 12.718,84.901 15.184,92.673 C -23.593,84.901 -11.197,0 -11.197,0 Z" /></g><g
         transform="translate(197.80129,112.4502)"
         id="g17332"><path
           inkscape:connector-curvature="0"
           id="path17334"
           style="fill:#5725a5;fill-opacity:1;fill-rule:nonzero;stroke:none"
           d="m 0,0 h -3.507 l -11.438,111.76 h 8.403 c 0,0 5.214,-72.292 6.542,-111.76" /></g><g
         transform="translate(-77.330513)"
         id="g17336"><g
           id="g17338" /><g
           id="g17350"><g
             style="opacity:0.35000604"
             id="g17348"
             clip-path="url(#clipPath17342)"><g
               id="g17346"
               transform="translate(275.1318,112.4502)"><path
                 inkscape:connector-curvature="0"
                 id="path17344"
                 style="fill:#441982;fill-opacity:1;fill-rule:nonzero;stroke:none"
                 d="m 0,0 h -3.507 l -11.438,111.76 h 8.403 c 0,0 5.214,-72.292 6.542,-111.76" /></g></g></g></g><g
         transform="translate(146.61039,112.4395)"
         id="g17352"><path
           inkscape:connector-curvature="0"
           id="path17354"
           style="fill:#441982;fill-opacity:1;fill-rule:nonzero;stroke:none"
           d="m 0,0 c -2.409,-4.826 -13.679,-7.178 -13.679,-7.178 0,0 -0.823,-1.424 0.445,-3.244 1.268,-1.82 13.114,-0.815 14.601,-0.499 1.487,0.317 2.519,1.512 2.519,1.512 0,0 0.986,-1.091 1.54,-1.363 0.554,-0.273 3.581,0.306 3.581,0.306 0.729,1.922 0.084,9.29 -0.11,10.466 z" /></g><g
         transform="translate(196.37849,112.4395)"
         id="g17356"><path
           inkscape:connector-curvature="0"
           id="path17358"
           style="fill:#441982;fill-opacity:1;fill-rule:nonzero;stroke:none"
           d="m 0,0 c 2.409,-4.826 13.678,-7.178 13.678,-7.178 0,0 0.824,-1.424 -0.445,-3.244 -1.268,-1.82 -13.114,-0.815 -14.601,-0.499 -1.486,0.317 -2.518,1.512 -2.518,1.512 0,0 -0.987,-1.091 -1.541,-1.363 -0.553,-0.273 -3.581,0.306 -3.581,0.306 -0.728,1.922 -0.083,9.29 0.111,10.466 z" /></g><g
         transform="translate(179.84919,286.7402)"
         id="g17360"><path
           inkscape:connector-curvature="0"
           id="path17362"
           style="fill:#ffffff;fill-opacity:1;fill-rule:nonzero;stroke:none"
           d="m 0,0 -2.67,0.776 h -4.14 -1.136 -4.14 L -14.755,0 -21.408,-62.31 H -7.946 -6.81 6.652 Z" /></g><g
         transform="translate(165.09379,286.7402)"
         id="g17364"><path
           inkscape:connector-curvature="0"
           id="path17366"
           style="fill:#7327cc;fill-opacity:1;fill-rule:nonzero;stroke:none"
           d="m 0,0 c 0,0 -16.52,-4.601 -19.181,-8.426 -2.488,-3.577 -12.018,-23.134 -11.381,-34.778 0.069,-1.263 1.191,-2.204 2.445,-2.038 l 12.595,2.778 -4.545,-25.112 c 0,0 12.971,-2.606 20.289,-2.161 z" /></g><g
         transform="translate(179.84919,286.7402)"
         id="g17368"><path
           inkscape:connector-curvature="0"
           id="path17370"
           style="fill:#7327cc;fill-opacity:1;fill-rule:nonzero;stroke:none"
           d="m 0,0 c 0,0 16.52,-4.601 19.181,-8.426 2.488,-3.577 12.273,-22.353 11.635,-33.997 -0.069,-1.264 -1.191,-2.204 -2.445,-2.038 l -12.85,1.997 4.546,-25.112 c 0,0 -12.87,-2.938 -20.187,-2.494 z" /></g><g
         transform="translate(177.14309,281.0605)"
         id="g17372"><path
           inkscape:connector-curvature="0"
           id="path17374"
           style="fill:#ba95f4;fill-opacity:1;fill-rule:nonzero;stroke:none"
           d="M 0,0 -4.621,2.575 -8.909,0 -6.173,-3.781 c 0,0 -2.616,-38.634 -2.716,-42.76 -0.015,-0.619 1.617,-2.64 3.106,-4.349 0.41,-0.472 0.812,-0.922 1.162,-1.309 0.351,0.388 0.752,0.837 1.163,1.309 1.489,1.709 3.121,3.73 3.106,4.349 -0.102,4.126 -2.421,42.612 -2.421,42.612 z" /></g><g
         transform="translate(149.57179,244.2764)"
         id="g17376"><path
           inkscape:connector-curvature="0"
           id="path17378"
           style="fill:#7327cc;fill-opacity:1;fill-rule:nonzero;stroke:none"
           d="M 0,0 38.916,6.542 36.81,15.578 -7.595,11.254 Z" /></g><g
         transform="translate(187.89609,251.7788)"
         id="g17380"><path
           inkscape:connector-curvature="0"
           id="path17382"
           style="fill:#ffa683;fill-opacity:1;fill-rule:nonzero;stroke:none"
           d="M 0,0 C 0,0 5.691,1.848 7.613,1.552 9.535,1.257 8.648,7.872 -1.515,8.075 Z" /></g><g
         transform="translate(162.75349,257.6709)"
         id="g17384"><path
           inkscape:connector-curvature="0"
           id="path17386"
           style="fill:#ffa683;fill-opacity:1;fill-rule:nonzero;stroke:none"
           d="m 0,0 c 0,0 -3.271,3.382 -8.371,2.938 -2.816,-0.245 -4.933,-4.213 -4.933,-4.213 z" /></g><g
         transform="translate(-77.330513)"
         id="g17388"><g
           id="g17390" /><g
           id="g17402"><g
             style="opacity:0.35000604"
             id="g17400"
             clip-path="url(#clipPath17394)"><g
               id="g17398"
               transform="translate(225.1846,234.7861)"><path
                 inkscape:connector-curvature="0"
                 id="path17396"
                 style="fill:#441982;fill-opacity:1;fill-rule:nonzero;stroke:none"
                 d="M 0,0 17.31,12.098 1.718,9.49 Z" /></g></g></g></g><g
         transform="translate(-77.330513)"
         id="g17404"><g
           id="g17406" /><g
           id="g17418"><g
             style="opacity:0.35000604"
             id="g17416"
             clip-path="url(#clipPath17410)"><g
               id="g17414"
               transform="translate(226.7798,256.396)"><path
                 inkscape:connector-curvature="0"
                 id="path17412"
                 style="fill:#441982;fill-opacity:1;fill-rule:nonzero;stroke:none"
                 d="M 0,0 -3.12,0.08 3.201,9.733 Z" /></g></g></g></g><g
         transform="translate(-77.330513)"
         id="g17420"><g
           id="g17422" /><g
           id="g17434"><g
             style="opacity:0.35000604"
             id="g17432"
             clip-path="url(#clipPath17426)"><g
               id="g17430"
               transform="translate(272.9639,253.2993)"><path
                 inkscape:connector-curvature="0"
                 id="path17428"
                 style="fill:#441982;fill-opacity:1;fill-rule:nonzero;stroke:none"
                 d="M 0,0 C 0,0 3.229,-0.064 3.571,0.449 3.913,0.961 -0.486,11.762 -0.486,11.762 -0.486,11.762 2.756,0.924 0,0" /></g></g></g></g><g
         transform="translate(-77.330513)"
         id="g17436"><g
           id="g17438" /><g
           id="g17450"><g
             style="opacity:0.35000604"
             id="g17448"
             clip-path="url(#clipPath17442)"><g
               id="g17446"
               transform="translate(277.2471,219.1641)"><path
                 inkscape:connector-curvature="0"
                 id="path17444"
                 style="fill:#441982;fill-opacity:1;fill-rule:nonzero;stroke:none"
                 d="m 0,0 -2.575,14.225 -1.971,10.887 -15.59,2.716 -0.002,-0.878 11.449,-8.295 3.386,-19.715 C -2.203,-0.502 0,0 0,0" /></g></g></g></g><g
         transform="translate(171.65629,205.1377)"
         id="g17452"><path
           inkscape:connector-curvature="0"
           id="path17454"
           style="fill:#441982;fill-opacity:1;fill-rule:nonzero;stroke:none"
           d="M 0,0 V 0 C -2.179,-1.819 -3.642,-4.354 -4.128,-7.149 L -19.03,-92.687 h 3.93 c 0,0 10.487,71.417 15.1,92.687" /></g><g
         transform="translate(176.61769,287.8735)"
         id="g17456"><path
           inkscape:connector-curvature="0"
           id="path17458"
           style="fill:#ffa683;fill-opacity:1;fill-rule:nonzero;stroke:none"
           d="M 0,0 -3.936,-2.396 -8.128,0 V 7.855 H 0 Z" /></g><g
         transform="translate(162.20709,302.0518)"
         id="g17460"><path
           inkscape:connector-curvature="0"
           id="path17462"
           style="fill:#441982;fill-opacity:1;fill-rule:nonzero;stroke:none"
           d="m 0,0 c 0,0 -1.628,6.083 0.048,9.149 1.677,3.065 4.525,6.47 7.303,4.554 0,0 1.671,2.193 7.563,0.756 5.891,-1.437 8.796,-1.478 10.904,-0.376 2.107,1.101 0.495,-9.724 -3.863,-10.347 0,0 -0.352,-2.826 -1.214,-3.832 -0.863,-1.006 -11.4,-1.533 -11.4,-1.533 z" /></g><g
         transform="translate(170.68509,309.9546)"
         id="g17464"><path
           inkscape:connector-curvature="0"
           id="path17466"
           style="fill:#ffa683;fill-opacity:1;fill-rule:nonzero;stroke:none"
           d="m 0,0 c -0.305,0.339 -0.902,-1.136 -2.314,-2.362 -1.666,-1.448 -3.9,-2.389 -3.9,-2.389 v -5.866 c 0,0 1.217,-7.967 8.392,-7.967 5.918,0 8.037,7.936 8.037,7.936 v 5.037 1.827 c 0,0 -7.053,0.256 -10.215,3.784" /></g><g
         transform="translate(176.61679,292.6123)"
         id="g17468"><path
           inkscape:connector-curvature="0"
           id="path17470"
           style="fill:#f48260;fill-opacity:1;fill-rule:nonzero;stroke:none"
           d="m 0,0 v -1.614 c -1.03,-0.746 -2.272,-1.241 -3.754,-1.241 -1.812,0 -3.245,0.508 -4.372,1.269 v 1.613 c 1.127,-0.761 2.56,-1.27 4.372,-1.27 1.48,0 2.724,0.498 3.754,1.243" /></g><g
         transform="translate(167.87409,301.3428)"
         id="g17472"><path
           inkscape:connector-curvature="0"
           id="path17474"
           style="fill:#ffa683;fill-opacity:1;fill-rule:nonzero;stroke:none"
           d="m 0,0 c 0,1.582 -1.283,2.864 -2.865,2.864 -1.582,0 -2.864,-1.282 -2.864,-2.864 0,-1.582 1.736,-3.338 3.318,-3.338 C -0.829,-3.338 0,-1.582 0,0" /></g><g
         transform="translate(178.16749,301.3428)"
         id="g17476"><path
           inkscape:connector-curvature="0"
           id="path17478"
           style="fill:#ffa683;fill-opacity:1;fill-rule:nonzero;stroke:none"
           d="M 0,0 C 0,1.582 1.282,2.864 2.864,2.864 4.446,2.864 5.729,1.582 5.729,0 5.729,-1.582 3.993,-3.338 2.411,-3.338 0.829,-3.338 0,-1.582 0,0" /></g></g></g></svg>