<?xml version="1.0" encoding="UTF-8" standalone="no"?>
<!-- Created with Inkscape (http://www.inkscape.org/) -->

<svg
   xmlns:dc="http://purl.org/dc/elements/1.1/"
   xmlns:cc="http://creativecommons.org/ns#"
   xmlns:rdf="http://www.w3.org/1999/02/22-rdf-syntax-ns#"
   xmlns:svg="http://www.w3.org/2000/svg"
   xmlns="http://www.w3.org/2000/svg"
   xmlns:sodipodi="http://sodipodi.sourceforge.net/DTD/sodipodi-0.dtd"
   xmlns:inkscape="http://www.inkscape.org/namespaces/inkscape"
   id="svg4958"
   version="1.1"
   inkscape:version="0.48.1 "
   width="568.91626"
   height="387.58551"
   xml:space="preserve"
   sodipodi:docname="2470471.ai"><metadata
     id="metadata4964"><rdf:RDF><cc:Work
         rdf:about=""><dc:format>image/svg+xml</dc:format><dc:type
           rdf:resource="http://purl.org/dc/dcmitype/StillImage" /><dc:title></dc:title></cc:Work></rdf:RDF></metadata><defs
     id="defs4962"><clipPath
       clipPathUnits="userSpaceOnUse"
       id="clipPath4972"><path
         d="m 0,500 499.999,0 0,-500 L 0,0 0,500 z"
         id="path4974"
         inkscape:connector-curvature="0" /></clipPath><clipPath
       clipPathUnits="userSpaceOnUse"
       id="clipPath4980"><path
         d="m 26.3084,159.199 447.2746,0 0,-68.6834 -447.2746,0 0,68.6834 z"
         id="path4982"
         inkscape:connector-curvature="0" /></clipPath><clipPath
       clipPathUnits="userSpaceOnUse"
       id="clipPath4996"><path
         d="m 0,500 499.999,0 0,-500 L 0,0 0,500 z"
         id="path4998"
         inkscape:connector-curvature="0" /></clipPath><clipPath
       clipPathUnits="userSpaceOnUse"
       id="clipPath5356"><path
         d="m 201.993,400.584 c -3.335,0 -6.041,-2.706 -6.041,-6.041 l 0,0 0,-163.669 150.454,0 0,163.669 c 0,3.335 -2.705,6.041 -6.04,6.041 l 0,0 -138.373,0 z"
         id="path5358"
         inkscape:connector-curvature="0" /></clipPath><clipPath
       clipPathUnits="userSpaceOnUse"
       id="clipPath5368"><path
         d="m 249.068,301.244 c -0.242,-0.172 -0.484,-0.353 -0.726,-0.533 l 0,0 C 230.273,287.113 220.78,258.249 215.949,230.874 l 0,0 111.736,0 c -3.503,27.114 -11.503,55.083 -28.945,68.884 l 0,0 c -0.607,0.481 -1.229,0.945 -1.858,1.39 l 0,0 c -4.533,3.206 -9.669,5.489 -15.488,6.613 l 0,0 c -3.232,0.626 -6.315,0.925 -9.261,0.925 l 0,0 c -8.903,0 -16.533,-2.735 -23.065,-7.442"
         id="path5370"
         inkscape:connector-curvature="0" /></clipPath><clipPath
       clipPathUnits="userSpaceOnUse"
       id="clipPath5376"><path
         d="m 220.818,313.12 104.018,0 0,-162.362 -104.018,0 0,162.362 z"
         id="path5378"
         inkscape:connector-curvature="0" /></clipPath><clipPath
       clipPathUnits="userSpaceOnUse"
       id="clipPath5400"><path
         d="m 191.646,212.172 162.362,0 0,-4.99 -162.362,0 0,4.99 z"
         id="path5402"
         inkscape:connector-curvature="0" /></clipPath><clipPath
       clipPathUnits="userSpaceOnUse"
       id="clipPath5414"><path
         d="m 191.646,232.515 162.362,0 0,-4.99 -162.362,0 0,4.99 z"
         id="path5416"
         inkscape:connector-curvature="0" /></clipPath><clipPath
       clipPathUnits="userSpaceOnUse"
       id="clipPath5428"><path
         d="m 191.646,252.091 162.362,0 0,-4.99 -162.362,0 0,4.99 z"
         id="path5430"
         inkscape:connector-curvature="0" /></clipPath><clipPath
       clipPathUnits="userSpaceOnUse"
       id="clipPath5442"><path
         d="m 191.646,272.05 162.362,0 0,-4.99 -162.362,0 0,4.99 z"
         id="path5444"
         inkscape:connector-curvature="0" /></clipPath><clipPath
       clipPathUnits="userSpaceOnUse"
       id="clipPath5456"><path
         d="m 191.646,291.625 162.362,0 0,-4.989 -162.362,0 0,4.989 z"
         id="path5458"
         inkscape:connector-curvature="0" /></clipPath><clipPath
       clipPathUnits="userSpaceOnUse"
       id="clipPath5470"><path
         d="m 191.646,192.596 162.362,0 0,-4.989 -162.362,0 0,4.989 z"
         id="path5472"
         inkscape:connector-curvature="0" /></clipPath><clipPath
       clipPathUnits="userSpaceOnUse"
       id="clipPath5484"><path
         d="m 201.993,400.584 c -3.335,0 -6.041,-2.706 -6.041,-6.041 l 0,0 0,-163.669 150.454,0 0,163.669 c 0,3.335 -2.705,6.041 -6.04,6.041 l 0,0 -138.373,0 z"
         id="path5486"
         inkscape:connector-curvature="0" /></clipPath><clipPath
       clipPathUnits="userSpaceOnUse"
       id="clipPath5544"><path
         d="m 0,500 499.999,0 0,-500 L 0,0 0,500 z"
         id="path5546"
         inkscape:connector-curvature="0" /></clipPath><clipPath
       clipPathUnits="userSpaceOnUse"
       id="clipPath5568"><path
         d="m 0,500 499.999,0 0,-500 L 0,0 0,500 z"
         id="path5570"
         inkscape:connector-curvature="0" /></clipPath></defs><sodipodi:namedview
     pagecolor="#ffffff"
     bordercolor="#666666"
     borderopacity="1"
     objecttolerance="10"
     gridtolerance="10"
     guidetolerance="10"
     inkscape:pageopacity="0"
     inkscape:pageshadow="2"
     inkscape:window-width="1201"
     inkscape:window-height="818"
     id="namedview4960"
     showgrid="false"
     fit-margin-top="0"
     fit-margin-left="0"
     fit-margin-right="0"
     fit-margin-bottom="0"
     inkscape:zoom="0.9312"
     inkscape:cx="362.82603"
     inkscape:cy="132.10023"
     inkscape:window-x="0"
     inkscape:window-y="0"
     inkscape:window-maximized="0"
     inkscape:current-layer="g4966" /><g
     id="g4966"
     inkscape:groupmode="layer"
     inkscape:label="2470471"
     transform="matrix(1.25,0,0,-1.25,-27.840737,500.73)"><g
       id="g4968"><g
         id="g4970"
         clip-path="url(#clipPath4972)"><g
           id="g4976"><g
             id="g4978" /><g
             id="g4984"><g
               clip-path="url(#clipPath4980)"
               id="g4986"
               style="opacity:0.25999499"><g
                 transform="translate(473.5826,124.8574)"
                 id="g4988"><path
                   d="m 0,0 c 0,-18.967 -100.126,-34.342 -223.637,-34.342 -123.511,0 -223.637,15.375 -223.637,34.342 0,18.967 100.126,34.342 223.637,34.342 C -100.126,34.342 0,18.967 0,0"
                   style="fill:#c9b8fe;fill-opacity:1;fill-rule:nonzero;stroke:none"
                   id="path4990"
                   inkscape:connector-curvature="0" /></g></g></g></g></g></g><g
       id="g4992"><g
         id="g4994"
         clip-path="url(#clipPath4996)"><g
           id="g5000"
           transform="translate(469.732,178.0283)"><path
             d="m 0,0 c -1.825,-2.29 -4.358,-4.018 -6.696,-5.753 -2.411,-1.789 -4.87,-3.513 -7.369,-5.175 -5.002,-3.327 -10.174,-6.392 -15.453,-9.258 -10.59,-5.749 -21.592,-10.701 -32.74,-15.261 -6.266,-2.564 -12.582,-5.006 -18.912,-7.407 -1.217,-0.46 -1.893,1.445 -0.677,1.905 22.245,8.409 44.44,17.4 64.567,30.222 2.836,1.806 5.623,3.688 8.351,5.651 2.706,1.946 5.277,4.294 8.236,5.836 C -0.198,1.019 0.394,0.493 0,0"
             style="fill:#ae98fe;fill-opacity:1;fill-rule:nonzero;stroke:none"
             id="path5002"
             inkscape:connector-curvature="0" /></g><g
           id="g5004"
           transform="translate(476.6079,186.0615)"><path
             d="m 0,0 c 1.5,-1.527 0.556,-4.376 -0.17,-6.111 -1.711,-4.094 -5.316,-7.256 -9.073,-9.687 -2.757,-1.783 -5.704,-3.286 -8.755,-4.531 -3.013,-1.231 -6.268,-2.323 -9.539,-2.46 -0.423,-0.018 -0.577,0.346 -0.465,0.643 -0.143,0.247 -0.179,0.555 -0.022,0.883 2.142,4.508 5.04,8.696 8.556,12.36 1.768,1.842 3.693,3.538 5.739,5.092 2.13,1.619 4.417,3.2 6.963,4.135 C -4.753,1.063 -1.639,1.669 0,0"
             style="fill:#ae98fe;fill-opacity:1;fill-rule:nonzero;stroke:none"
             id="path5006"
             inkscape:connector-curvature="0" /></g><g
           id="g5008"
           transform="translate(447.5581,160.6172)"><path
             d="m 0,0 c 2.766,0.374 5.533,0.657 8.296,0.794 2.725,0.134 5.447,0.135 8.128,-0.033 2.344,-0.147 4.791,-0.515 6.382,-1.975 1.484,-1.361 1.772,-3.354 0.616,-5.209 -1.234,-1.978 -3.598,-3.2 -5.92,-3.956 -4.764,-1.549 -9.798,-1.319 -14.259,-0.153 -2.496,0.652 -4.869,1.607 -6.944,2.892 -1.021,0.632 -1.953,1.34 -2.787,2.148 -0.726,0.703 -1.253,1.418 -1.718,2.235 -0.117,0.12 -0.197,0.266 -0.232,0.422 -0.021,0.041 -0.043,0.08 -0.064,0.122 -0.082,0.158 -0.005,0.298 0.13,0.386 0.08,0.16 0.221,0.313 0.437,0.442 C -5.624,-0.502 -2.586,-0.351 0,0"
             style="fill:#ae98fe;fill-opacity:1;fill-rule:nonzero;stroke:none"
             id="path5010"
             inkscape:connector-curvature="0" /></g><g
           id="g5012"
           transform="translate(433.9917,151.7119)"><path
             d="m 0,0 c 2.657,-0.531 5.287,-1.147 7.866,-1.896 2.543,-0.739 5.043,-1.6 7.45,-2.602 2.105,-0.876 4.236,-1.988 5.234,-3.832 0.931,-1.719 0.565,-3.64 -1.083,-4.977 -1.758,-1.425 -4.315,-1.798 -6.686,-1.757 -4.863,0.085 -9.411,1.889 -13.136,4.37 -2.085,1.388 -3.961,3.016 -5.46,4.853 -0.737,0.903 -1.369,1.848 -1.878,2.853 -0.445,0.875 -0.702,1.698 -0.87,2.594 -0.07,0.148 -0.097,0.308 -0.08,0.462 -0.006,0.044 -0.013,0.087 -0.02,0.132 -0.025,0.171 0.09,0.275 0.241,0.313 0.125,0.122 0.303,0.217 0.542,0.268 C -5.321,1.319 -2.484,0.497 0,0"
             style="fill:#ae98fe;fill-opacity:1;fill-rule:nonzero;stroke:none"
             id="path5014"
             inkscape:connector-curvature="0" /></g><g
           id="g5016"
           transform="translate(418.6275,144.3242)"><path
             d="m 0,0 c 2.589,-0.802 5.141,-1.685 7.629,-2.695 2.454,-0.997 4.851,-2.111 7.143,-3.356 2.003,-1.088 4.008,-2.413 4.812,-4.349 0.749,-1.807 0.187,-3.679 -1.59,-4.839 -1.895,-1.239 -4.477,-1.346 -6.831,-1.061 -4.829,0.585 -9.167,2.848 -12.617,5.699 -1.931,1.596 -3.629,3.409 -4.931,5.389 -0.64,0.974 -1.172,1.98 -1.575,3.031 -0.352,0.917 -0.523,1.762 -0.599,2.671 -0.052,0.155 -0.064,0.316 -0.03,0.468 -0.002,0.044 -0.006,0.088 -0.008,0.133 -0.007,0.173 0.118,0.263 0.274,0.287 0.135,0.107 0.322,0.185 0.565,0.211 C -5.157,1.86 -2.42,0.75 0,0"
             style="fill:#ae98fe;fill-opacity:1;fill-rule:nonzero;stroke:none"
             id="path5018"
             inkscape:connector-curvature="0" /></g><g
           id="g5020"
           transform="translate(403.5884,137.3105)"><path
             d="m 0,0 c 2.511,-0.944 4.981,-1.97 7.382,-3.121 2.367,-1.137 4.672,-2.389 6.864,-3.768 1.917,-1.207 3.821,-2.653 4.504,-4.661 0.637,-1.872 -0.025,-3.746 -1.848,-4.835 -1.942,-1.161 -4.499,-1.141 -6.808,-0.733 -4.736,0.838 -8.892,3.354 -12.137,6.425 -1.815,1.717 -3.39,3.644 -4.562,5.721 -0.577,1.022 -1.044,2.07 -1.382,3.159 -0.295,0.948 -0.416,1.815 -0.439,2.743 -0.044,0.159 -0.046,0.324 -0.004,0.475 10e-4,0.046 0,0.09 10e-4,0.136 0.003,0.176 0.132,0.263 0.285,0.278 0.142,0.103 0.331,0.172 0.573,0.186 C -4.987,2.149 -2.348,0.884 0,0"
             style="fill:#ae98fe;fill-opacity:1;fill-rule:nonzero;stroke:none"
             id="path5022"
             inkscape:connector-curvature="0" /></g><g
           id="g5024"
           transform="translate(399.7378,145.7764)"><path
             d="m 0,0 c 0.8,2.561 1.512,5.14 2.08,7.74 0.561,2.565 0.991,5.153 1.252,7.73 0.229,2.253 0.259,4.644 -0.903,6.418 -1.084,1.654 -2.969,2.284 -4.949,1.517 -2.111,-0.817 -3.667,-2.844 -4.766,-4.917 -2.253,-4.249 -2.825,-9.073 -2.402,-13.52 0.238,-2.489 0.789,-4.915 1.705,-7.117 0.451,-1.082 0.989,-2.096 1.639,-3.033 0.567,-0.815 1.176,-1.444 1.894,-2.033 0.097,-0.132 0.226,-0.235 0.372,-0.295 0.036,-0.028 0.071,-0.055 0.107,-0.083 0.141,-0.106 0.288,-0.057 0.395,0.054 0.168,0.048 0.339,0.154 0.498,0.337 C -1.374,-5.254 -0.747,-2.395 0,0"
             style="fill:#ae98fe;fill-opacity:1;fill-rule:nonzero;stroke:none"
             id="path5026"
             inkscape:connector-curvature="0" /></g><g
           id="g5028"
           transform="translate(414.8755,152.3564)"><path
             d="m 0,0 c 0.83,2.587 1.57,5.194 2.163,7.827 0.583,2.597 1.033,5.221 1.308,7.839 0.24,2.288 0.275,4.724 -0.922,6.562 -1.118,1.714 -3.065,2.408 -5.112,1.681 -2.182,-0.774 -3.794,-2.798 -4.934,-4.878 -2.336,-4.265 -2.937,-9.164 -2.506,-13.706 0.241,-2.541 0.806,-5.027 1.749,-7.295 0.463,-1.115 1.019,-2.162 1.689,-3.134 0.584,-0.846 1.211,-1.503 1.952,-2.123 0.101,-0.136 0.234,-0.245 0.384,-0.31 0.039,-0.029 0.074,-0.059 0.112,-0.088 0.144,-0.111 0.297,-0.066 0.408,0.045 0.173,0.044 0.35,0.147 0.515,0.329 C -1.43,-5.313 -0.777,-2.418 0,0"
             style="fill:#ae98fe;fill-opacity:1;fill-rule:nonzero;stroke:none"
             id="path5030"
             inkscape:connector-curvature="0" /></g><g
           id="g5032"
           transform="translate(447.7915,190.289)"><path
             d="m 0,0 c 2.028,-0.215 3.86,-1.655 4.783,-4.03 1.621,-4.18 -0.385,-9.118 -2.054,-12.984 -1.862,-4.315 -4.44,-8.323 -7.615,-11.791 -0.772,-0.843 -1.516,-1.684 -2.224,-2.579 -0.215,-0.271 -0.067,-0.642 -0.441,-0.838 -2.595,-1.346 -3.425,8.03 -3.562,9.652 -0.402,4.73 -0.105,9.797 1.774,14.177 C -7.727,-4.632 -4.84,0.513 0,0"
             style="fill:#ae98fe;fill-opacity:1;fill-rule:nonzero;stroke:none"
             id="path5034"
             inkscape:connector-curvature="0" /></g><g
           id="g5036"
           transform="translate(427.4224,183.1474)"><path
             d="m 0,0 c 1.955,0.203 3.982,-0.791 5.351,-2.853 2.408,-3.626 1.563,-8.699 0.808,-12.688 -0.842,-4.453 -2.421,-8.76 -4.676,-12.675 -0.548,-0.952 -1.072,-1.896 -1.549,-2.885 -0.145,-0.299 0.073,-0.621 -0.238,-0.879 -2.156,-1.794 -4.916,6.904 -5.388,8.412 -1.375,4.392 -2.165,9.242 -1.323,13.76 C -6.291,-5.928 -4.661,-0.484 0,0"
             style="fill:#ae98fe;fill-opacity:1;fill-rule:nonzero;stroke:none"
             id="path5038"
             inkscape:connector-curvature="0" /></g><g
           id="g5040"
           transform="translate(116.9136,232.917)"><path
             d="m 0,0 c 0.262,-0.911 0.485,-1.833 0.66,-2.77 0.234,-1.201 0.394,-2.418 0.484,-3.649 0.486,-6.84 -4.21,-14.543 -2.053,-21.054 0.737,-2.219 2.241,-3.981 3.964,-5.594 0.716,-0.662 1.467,-1.302 2.222,-1.941 0.744,-0.626 1.488,-1.252 2.195,-1.895 6.459,-5.87 9.898,-13.609 10.726,-21.668 0.18,-1.744 0.236,-3.501 0.171,-5.261 -0.392,-11.136 -5.533,-22.249 -14.391,-29.372 -0.877,-0.709 -1.792,-1.378 -2.743,-2.002 -0.459,-0.302 -0.926,-0.59 -1.401,-0.872 -12.016,-7.101 -27.74,-3.86 -33.963,8.578 -0.367,0.729 -0.699,1.49 -0.998,2.284 -0.085,0.229 -0.167,0.459 -0.247,0.695 -1.453,4.267 -1.852,8.818 -4.067,12.811 -1.115,2.006 -2.596,3.842 -4.331,5.387 -1.528,1.371 -3.262,2.52 -5.111,3.37 -0.059,0.029 -0.122,0.057 -0.184,0.08 -4.036,1.821 -8.363,2.563 -12.165,4.963 -7.093,4.482 -13.467,12.97 -14.606,21.408 -0.076,0.558 -0.124,1.115 -0.149,1.661 -0.04,0.89 -0.017,1.771 0.057,2.64 0.48,5.631 3.166,10.851 5.23,16.128 0.697,1.783 1.355,3.636 1.736,5.53 0.194,0.955 0.32,1.918 0.348,2.891 0.01,0.42 0.003,0.839 -0.023,1.258 -0.309,4.707 -3.254,8.626 -6.338,11.968 -3.567,3.866 -7.801,7.495 -10.918,11.802 -0.789,1.095 -1.505,2.234 -2.123,3.431 -0.857,1.664 -1.516,3.439 -1.903,5.366 -0.82,4.115 0.161,8 2.025,11.674 1.048,2.068 2.272,4.024 3.288,6.076 0.325,0.65 0.627,1.311 0.896,1.993 0.383,0.971 0.702,1.974 0.913,3.032 0.837,4.171 0.183,8.182 -1.285,12.114 -0.27,0.723 -0.52,1.446 -0.732,2.171 -0.24,0.82 -0.427,1.642 -0.544,2.458 -0.345,2.438 -0.024,4.843 1.617,7.116 2.241,3.107 5.497,5.006 9.077,5.906 1.17,0.295 2.378,0.486 3.593,0.569 2.85,0.213 5.759,-0.125 8.406,-0.916 3.338,-0.993 6.316,-2.703 8.89,-4.903 0.749,-0.637 1.465,-1.317 2.141,-2.034 2.49,-2.625 4.51,-5.733 6.001,-9.049 0.955,-2.121 1.718,-4.318 2.342,-6.556 0.32,-1.14 0.605,-2.289 0.857,-3.448 0.602,-2.713 1.044,-5.468 1.424,-8.218 0.389,-2.813 0.725,-5.665 1.779,-8.3 0.183,-0.456 0.387,-0.891 0.612,-1.303 0.512,-0.943 1.125,-1.772 1.823,-2.506 3.847,-4.07 10.166,-5.339 15.204,-7.678 1.843,-0.857 3.629,-1.854 5.336,-2.975 0.804,-0.529 1.592,-1.088 2.362,-1.675 C -7.315,14.713 -2.221,7.777 0,0"
             style="fill:#fa8775;fill-opacity:1;fill-rule:nonzero;stroke:none"
             id="path5042"
             inkscape:connector-curvature="0" /></g><g
           id="g5044"
           transform="translate(116.9136,232.917)"><path
             d="m 0,0 c 0.262,-0.911 0.485,-1.833 0.66,-2.77 -0.863,-1.049 -1.71,-2.113 -2.563,-3.157 -2.692,-3.298 -5.368,-6.609 -7.987,-9.965 -4.62,-5.922 -9.185,-11.872 -13.309,-18.155 -1.098,-1.673 -2.156,-3.372 -3.21,-5.068 -0.368,-0.591 -0.723,-1.372 -1.19,-2.02 0.228,-0.766 0.479,-1.526 0.771,-2.279 2.839,-7.384 7.859,-13.617 12.796,-19.698 0.542,-0.666 1.08,-1.33 1.619,-1.998 0.037,0.072 0.072,0.148 0.11,0.225 1.469,2.882 2.925,5.771 4.359,8.677 3.777,7.661 7.441,15.375 10.999,23.141 0.716,-0.662 1.467,-1.302 2.222,-1.941 -1.188,-2.591 -2.392,-5.177 -3.605,-7.753 -2.922,-6.197 -5.924,-12.362 -8.975,-18.501 -0.806,-1.624 -1.614,-3.246 -2.431,-4.866 -0.227,-0.454 -0.443,-0.97 -0.698,-1.469 3.551,-4.513 6.911,-9.151 9.602,-14.261 0.666,-1.268 1.295,-2.558 1.887,-3.858 0.069,0.152 0.138,0.298 0.211,0.442 3.381,6.548 8.327,12.099 12.239,18.309 1.713,2.714 3.16,5.575 4.691,8.394 0.18,-1.744 0.236,-3.501 0.171,-5.261 -0.678,-1.252 -1.373,-2.498 -2.119,-3.714 -3.114,-5.108 -6.974,-9.707 -10.216,-14.728 -0.805,-1.251 -1.578,-2.522 -2.279,-3.83 -0.473,-0.879 -0.837,-1.927 -1.321,-2.85 0.556,-1.401 1.07,-2.816 1.544,-4.25 -0.877,-0.709 -1.792,-1.378 -2.743,-2.002 -0.455,1.434 -0.948,2.853 -1.489,4.259 -1.576,-0.12 -3.456,0.601 -4.794,0.842 -9.576,1.702 -19.348,2.096 -29.081,2.605 -0.367,0.729 -0.699,1.49 -0.998,2.284 5.155,-0.174 10.31,-0.41 15.452,-0.693 3.971,-0.219 7.937,-0.584 11.873,-1.153 1.833,-0.267 3.648,-0.588 5.462,-0.955 0.399,-0.079 0.715,-0.163 0.978,-0.213 -1.22,2.828 -2.617,5.584 -4.199,8.248 -2.165,3.644 -4.692,7.025 -7.319,10.334 -1.117,-0.165 -2.422,0.163 -3.428,0.277 -1.57,0.172 -3.145,0.345 -4.717,0.519 -7.079,0.78 -14.153,1.561 -21.231,2.358 -0.506,0.058 -1.01,0.112 -1.516,0.171 -1.528,1.371 -3.262,2.52 -5.111,3.37 -0.059,0.029 -0.122,0.057 -0.184,0.08 2.609,-0.196 5.213,-0.527 7.811,-0.812 6.552,-0.717 13.107,-1.447 19.657,-2.179 1.7,-0.189 3.406,-0.379 5.111,-0.569 0.363,-0.043 0.768,-0.124 1.169,-0.188 -1.948,2.4 -3.906,4.795 -5.774,7.256 -3.935,5.193 -7.487,10.764 -9.469,16.992 -1.001,0.122 -2.054,0.488 -2.885,0.648 -1.76,0.339 -3.519,0.674 -5.277,1 -12.356,2.294 -24.888,3.726 -37.263,5.884 -0.04,0.89 -0.017,1.771 0.057,2.64 5.937,-0.528 11.852,-1.433 17.732,-2.386 7.33,-1.191 14.641,-2.482 21.929,-3.92 1.625,-0.319 3.276,-0.784 4.924,-1.012 -1.462,6.331 -1.209,12.894 -2.076,19.309 -0.269,2.017 -0.658,4.023 -1.255,5.964 -0.497,-0.032 -1.011,-0.005 -1.513,0.01 -3.069,0.097 -6.127,0.282 -9.192,0.516 -7.679,0.589 -15.875,1.235 -23.583,3.177 0.194,0.955 0.32,1.918 0.348,2.891 3.455,-0.638 6.923,-1.216 10.431,-1.603 7.279,-0.802 14.575,-1.236 21.872,-1.854 0.154,-0.01 0.303,-0.032 0.452,-0.049 -0.095,0.201 -0.185,0.405 -0.284,0.604 -1.584,3.141 -3.959,5.759 -6.482,8.168 -3.739,3.566 -7.809,6.758 -11.105,10.689 -0.29,-0.088 -0.589,-0.141 -0.896,-0.157 -1.601,-0.069 -3.321,0.583 -4.863,0.962 -1.911,0.472 -3.818,0.964 -5.723,1.48 -3.804,1.034 -7.574,2.183 -11.313,3.434 -3.143,1.057 -6.272,2.175 -9.368,3.354 -0.789,1.095 -1.505,2.234 -2.123,3.431 0.393,-0.132 0.784,-0.269 1.172,-0.407 3.48,-1.248 6.986,-2.419 10.518,-3.505 3.534,-1.09 7.092,-2.102 10.661,-3.071 1.664,-0.454 3.334,-0.886 5.007,-1.304 1.453,-0.364 3.122,-1.004 4.669,-1.201 -0.155,0.235 -0.311,0.469 -0.457,0.713 -3.903,6.349 -5.315,13.425 -5.953,20.677 -0.608,0.219 -1.189,0.569 -1.73,0.835 -1.435,0.706 -2.871,1.411 -4.308,2.12 -2.622,1.286 -5.235,2.575 -7.831,3.91 -2.793,1.435 -5.579,2.874 -8.338,4.349 0.325,0.65 0.627,1.311 0.896,1.993 2.397,-1.067 4.784,-2.162 7.175,-3.272 2.533,-1.18 5.064,-2.375 7.577,-3.597 1.319,-0.641 2.637,-1.282 3.955,-1.928 0.542,-0.262 1.52,-0.934 2.373,-1.304 -0.367,5.989 -0.376,12.05 -0.968,17.884 -0.404,0.144 -0.793,0.341 -1.145,0.497 -1.355,0.596 -2.706,1.203 -4.06,1.805 -2.463,1.093 -4.926,2.186 -7.377,3.299 -2.87,1.307 -5.788,2.555 -8.634,3.933 -0.24,0.82 -0.427,1.642 -0.544,2.458 3.109,-1.168 6.149,-2.537 9.203,-3.826 2.232,-0.941 4.456,-1.894 6.678,-2.854 1.113,-0.48 2.224,-0.962 3.337,-1.443 0.353,-0.151 1.407,-0.755 2.198,-1.056 -1.226,8.386 -4.509,16.85 -10.722,22.201 1.17,0.295 2.378,0.486 3.593,0.569 5.065,-5.157 8.116,-12.802 9.558,-19.89 0.556,1.069 1.106,2.141 1.673,3.207 1.087,2.037 2.21,4.051 3.34,6.064 0.899,1.608 1.803,3.209 2.725,4.8 0.749,-0.637 1.465,-1.317 2.141,-2.034 -1.2,-2.125 -2.395,-4.251 -3.567,-6.388 -1.235,-2.249 -2.456,-4.505 -3.674,-6.76 -0.498,-0.92 -1.048,-2.554 -1.892,-3.653 0.63,-5.626 0.672,-11.607 1.043,-17.541 0.43,0.509 0.818,1.023 1.093,1.315 0.881,0.941 1.754,1.887 2.618,2.843 1.91,2.102 3.783,4.233 5.651,6.364 2.377,2.72 4.694,5.496 7.071,8.215 0.32,-1.14 0.605,-2.289 0.857,-3.448 -2.304,-2.738 -4.665,-5.426 -7.01,-8.117 -1.949,-2.235 -3.934,-4.438 -5.949,-6.61 -0.968,-1.038 -1.94,-2.068 -2.926,-3.088 -0.346,-0.359 -0.713,-0.795 -1.122,-1.172 0.691,-7.451 2.221,-14.676 6.438,-20.839 0.718,0.811 1.326,1.83 1.86,2.524 1.064,1.383 2.117,2.781 3.131,4.202 2.056,2.877 3.895,5.886 5.668,8.945 1.234,2.122 2.447,4.248 3.725,6.334 0.512,-0.943 1.125,-1.772 1.823,-2.506 -1.538,-2.583 -2.993,-5.218 -4.52,-7.796 -1.979,-3.33 -4.155,-6.514 -6.484,-9.606 -0.944,-1.251 -2.009,-3.138 -3.325,-4.558 4.316,-5.102 10.012,-8.828 14.313,-13.951 1.456,-1.731 2.616,-3.58 3.552,-5.517 0.173,0.382 0.329,0.752 0.465,0.998 1.038,1.851 2.071,3.7 3.105,5.549 2.074,3.696 4.142,7.394 6.213,11.095 2.424,4.332 4.731,8.799 7.221,13.133 0.804,-0.529 1.592,-1.088 2.362,-1.675 -2.251,-3.986 -4.367,-8.054 -6.58,-12.026 -3.414,-6.133 -6.832,-12.266 -10.249,-18.4 -0.366,-0.657 -0.707,-1.405 -1.169,-2.042 1.024,-3.024 1.607,-6.223 1.918,-9.52 0.478,-5.025 0.557,-10.133 1.477,-15.086 0.268,0.447 0.528,0.898 0.802,1.339 1.917,3.079 3.934,6.09 6.031,9.051 4.206,5.931 8.712,11.626 13.387,17.189 2.345,2.784 4.726,5.532 7.067,8.315 C -0.805,-0.976 -0.405,-0.487 0,0"
             style="fill:#fa6e5b;fill-opacity:1;fill-rule:nonzero;stroke:none"
             id="path5046"
             inkscape:connector-curvature="0" /></g><g
           id="g5048"
           transform="translate(30.1446,198.3076)"><path
             d="m 0,0 c 1.718,-2.88 4.325,-5.229 6.71,-7.559 2.459,-2.4 4.983,-4.734 7.562,-7.005 5.163,-4.545 10.556,-8.819 16.104,-12.883 11.127,-8.154 22.845,-15.466 34.789,-22.358 6.713,-3.874 13.501,-7.617 20.313,-11.315 1.309,-0.711 2.37,1.347 1.06,2.056 -23.939,12.966 -47.73,26.586 -68.588,44.233 -2.938,2.485 -5.81,5.049 -8.603,7.696 C 6.577,-4.51 4.022,-1.45 0.904,0.755 0.382,1.124 -0.371,0.62 0,0"
             style="fill:#fbc03f;fill-opacity:1;fill-rule:nonzero;stroke:none"
             id="path5050"
             inkscape:connector-curvature="0" /></g><g
           id="g5052"
           transform="translate(23.5821,208.4795)"><path
             d="m 0,0 c -1.937,-1.501 -1.304,-4.878 -0.749,-6.958 1.311,-4.908 4.914,-9.05 8.801,-12.387 2.852,-2.447 5.964,-4.607 9.233,-6.489 3.229,-1.859 6.752,-3.602 10.443,-4.261 0.477,-0.085 0.707,0.304 0.626,0.659 0.199,0.257 0.288,0.602 0.162,0.999 -1.737,5.443 -4.379,10.639 -7.803,15.337 -1.721,2.363 -3.643,4.583 -5.726,6.663 C 12.82,-4.273 10.47,-2.128 7.726,-0.675 5.556,0.475 2.116,1.641 0,0"
             style="fill:#fbc03f;fill-opacity:1;fill-rule:nonzero;stroke:none"
             id="path5054"
             inkscape:connector-curvature="0" /></g><g
           id="g5056"
           transform="translate(52.6163,175.1387)"><path
             d="m 0,0 c -3.08,0.852 -6.175,1.6 -9.289,2.18 -3.069,0.572 -6.158,0.992 -9.225,1.215 -2.681,0.195 -5.514,0.155 -7.544,-1.256 -1.894,-1.317 -2.527,-3.533 -1.502,-5.816 1.095,-2.434 3.588,-4.184 6.106,-5.399 5.166,-2.491 10.912,-3.006 16.152,-2.371 2.932,0.355 5.771,1.073 8.324,2.211 1.254,0.559 2.422,1.219 3.492,2.007 0.932,0.686 1.64,1.416 2.294,2.27 0.15,0.119 0.264,0.272 0.327,0.444 0.031,0.043 0.062,0.084 0.092,0.128 0.117,0.167 0.051,0.337 -0.088,0.458 -0.067,0.195 -0.202,0.39 -0.428,0.57 C 6.303,-1.435 2.879,-0.795 0,0"
             style="fill:#fbc03f;fill-opacity:1;fill-rule:nonzero;stroke:none"
             id="path5058"
             inkscape:connector-curvature="0" /></g><g
           id="g5060"
           transform="translate(66.6343,162.9463)"><path
             d="m 0,0 c -3.096,-0.193 -6.174,-0.486 -9.215,-0.938 -2.999,-0.447 -5.968,-1.038 -8.853,-1.804 -2.523,-0.669 -5.111,-1.603 -6.528,-3.54 -1.321,-1.807 -1.202,-4.042 0.462,-5.813 1.774,-1.888 4.617,-2.706 7.313,-3.024 5.53,-0.653 10.967,0.693 15.576,2.933 2.579,1.254 4.958,2.812 6.941,4.665 0.975,0.91 1.838,1.885 2.571,2.946 0.638,0.925 1.057,1.818 1.387,2.81 0.1,0.157 0.157,0.333 0.16,0.511 0.015,0.05 0.03,0.097 0.044,0.147 0.054,0.19 -0.06,0.325 -0.226,0.392 C 9.51,-0.558 9.323,-0.421 9.059,-0.327 6.24,0.677 2.895,0.182 0,0"
             style="fill:#fbc03f;fill-opacity:1;fill-rule:nonzero;stroke:none"
             id="path5062"
             inkscape:connector-curvature="0" /></g><g
           id="g5064"
           transform="translate(82.9249,152.1992)"><path
             d="m 0,0 c -3.06,-0.512 -6.091,-1.119 -9.069,-1.883 -2.938,-0.752 -5.829,-1.646 -8.621,-2.705 -2.44,-0.926 -4.918,-2.12 -6.128,-4.193 -1.129,-1.934 -0.78,-4.145 1.058,-5.735 1.959,-1.695 4.871,-2.215 7.585,-2.255 5.568,-0.081 10.838,1.819 15.192,4.522 2.436,1.513 4.642,3.307 6.423,5.353 0.876,1.006 1.635,2.065 2.254,3.196 0.54,0.985 0.865,1.917 1.091,2.938 0.084,0.166 0.121,0.348 0.106,0.525 0.01,0.05 0.02,0.098 0.029,0.149 C 9.954,0.107 9.827,0.23 9.655,0.28 9.517,0.424 9.317,0.54 9.045,0.606 6.137,1.315 2.861,0.478 0,0"
             style="fill:#fbc03f;fill-opacity:1;fill-rule:nonzero;stroke:none"
             id="path5066"
             inkscape:connector-curvature="0" /></g><g
           id="g5068"
           transform="translate(98.9043,141.9258)"><path
             d="m 0,0 c -2.994,-0.685 -5.955,-1.467 -8.854,-2.404 -2.861,-0.924 -5.668,-1.989 -8.368,-3.216 -2.361,-1.073 -4.743,-2.421 -5.827,-4.594 -1.012,-2.025 -0.549,-4.253 1.35,-5.769 2.026,-1.617 4.928,-1.988 7.611,-1.88 5.502,0.219 10.604,2.434 14.758,5.418 2.325,1.669 4.407,3.612 6.058,5.788 0.811,1.069 1.502,2.186 2.054,3.369 0.48,1.03 0.752,1.995 0.92,3.044 0.074,0.174 0.102,0.36 0.077,0.539 C 9.786,0.347 9.793,0.397 9.8,0.449 9.823,0.649 9.69,0.768 9.518,0.809 9.374,0.946 9.171,1.055 8.898,1.106 5.989,1.67 2.799,0.641 0,0"
             style="fill:#fbc03f;fill-opacity:1;fill-rule:nonzero;stroke:none"
             id="path5070"
             inkscape:connector-curvature="0" /></g><g
           id="g5072"
           transform="translate(104.5767,150.9355)"><path
             d="m 0,0 c -0.512,3.028 -0.922,6.063 -1.166,9.102 -0.241,2.995 -0.331,5.997 -0.23,8.96 0.088,2.592 0.422,5.309 2.014,7.142 1.485,1.709 3.72,2.134 5.847,0.959 2.269,-1.252 3.723,-3.792 4.649,-6.311 C 13.016,14.684 12.922,9.123 11.755,4.144 11.103,1.356 10.104,-1.311 8.726,-3.668 8.047,-4.826 7.28,-5.894 6.398,-6.854 5.63,-7.693 4.843,-8.313 3.938,-8.87 3.806,-9.005 3.644,-9.102 3.469,-9.147 3.424,-9.173 3.38,-9.199 3.334,-9.226 3.159,-9.323 3,-9.246 2.896,-9.103 2.712,-9.022 2.535,-8.876 2.382,-8.645 0.75,-6.172 0.479,-2.831 0,0"
             style="fill:#fbc03f;fill-opacity:1;fill-rule:nonzero;stroke:none"
             id="path5074"
             inkscape:connector-curvature="0" /></g><g
           id="g5076"
           transform="translate(88.4195,160.7334)"><path
             d="m 0,0 c -0.544,3.063 -0.982,6.134 -1.248,9.212 -0.262,3.036 -0.368,6.082 -0.276,9.094 0.08,2.633 0.415,5.401 2.057,7.301 1.532,1.773 3.847,2.26 6.057,1.121 2.357,-1.216 3.875,-3.759 4.847,-6.294 C 13.429,15.234 13.355,9.585 12.167,4.5 11.502,1.654 10.479,-1.079 9.06,-3.507 8.362,-4.7 7.571,-5.803 6.661,-6.802 5.868,-7.672 5.055,-8.32 4.119,-8.909 3.983,-9.049 3.815,-9.151 3.634,-9.202 3.588,-9.229 3.543,-9.258 3.495,-9.285 3.313,-9.389 3.148,-9.314 3.04,-9.171 2.85,-9.095 2.665,-8.95 2.506,-8.719 0.802,-6.249 0.508,-2.863 0,0"
             style="fill:#fbc03f;fill-opacity:1;fill-rule:nonzero;stroke:none"
             id="path5078"
             inkscape:connector-curvature="0" /></g><g
           id="g5080"
           transform="translate(56.9239,208.8349)"><path
             d="m 0,0 c -2.335,0.069 -4.635,-1.282 -6.047,-3.835 -2.484,-4.491 -0.969,-10.403 0.328,-15.045 1.448,-5.182 3.755,-10.126 6.823,-14.548 0.746,-1.076 1.46,-2.144 2.126,-3.269 0.202,-0.341 -0.023,-0.739 0.371,-1.018 2.735,-1.928 5.122,8.58 5.528,10.4 1.184,5.304 1.628,11.097 0.172,16.356 C 8.051,-6.444 5.569,-0.163 0,0"
             style="fill:#fbc03f;fill-opacity:1;fill-rule:nonzero;stroke:none"
             id="path5082"
             inkscape:connector-curvature="0" /></g><g
           id="g5084"
           transform="translate(78.9297,197.5957)"><path
             d="m 0,0 c -2.186,0.531 -4.639,-0.284 -6.51,-2.412 -3.29,-3.743 -3.113,-9.627 -2.872,-14.269 0.269,-5.181 1.397,-10.31 3.352,-15.098 0.476,-1.166 0.924,-2.318 1.313,-3.512 0.118,-0.362 -0.179,-0.693 0.134,-1.035 2.17,-2.367 6.641,7.075 7.409,8.713 2.237,4.77 3.881,10.151 3.621,15.406 C 6.224,-7.694 5.213,-1.269 0,0"
             style="fill:#fbc03f;fill-opacity:1;fill-rule:nonzero;stroke:none"
             id="path5086"
             inkscape:connector-curvature="0" /></g><g
           id="g5088"
           transform="translate(457.6519,219.5185)"><path
             d="m 0,0 c -0.076,-1.841 -0.421,-3.709 -0.852,-5.473 -3.286,-13.437 -11.169,-25.924 -22.647,-32.631 4.595,1.251 9.042,-3.619 9.424,-8.639 0.013,-0.18 0.021,-0.362 0.024,-0.542 0.021,-1.164 -0.117,-2.302 -0.381,-3.409 -0.906,-3.837 -3.317,-7.309 -5.919,-10.26 -11.027,-12.52 -26.394,-19.757 -41.856,-24.805 -10.64,-3.47 -23.342,-4.101 -32.822,1.322 -0.968,0.552 -1.903,1.168 -2.797,1.851 -3.348,2.553 -6.146,6.032 -8.104,10.621 -6.384,14.956 -9.008,31.685 -7.531,48.009 0.358,3.982 1.863,8.749 4.729,10.668 0.675,0.452 1.424,0.745 2.253,0.831 0.313,0.036 0.635,0.039 0.97,0.012 1.734,-0.143 3.278,-1.205 4.625,-2.373 3.604,-3.137 6.393,-7.315 7.978,-11.956 -0.594,16.005 0.491,32.932 8.752,46.338 0.711,1.151 1.515,2.312 2.619,3.013 0.137,0.091 0.282,0.171 0.43,0.245 0.662,0.324 1.369,0.453 2.08,0.418 1.739,-0.078 3.498,-1.126 4.654,-2.577 1.621,-2.045 2.321,-4.713 2.977,-7.29 0.278,10.272 3.366,20.433 8.791,28.944 1.441,2.261 3.18,4.496 5.318,5.938 0.784,0.529 1.62,0.95 2.514,1.223 0.247,0.076 0.497,0.142 0.752,0.196 3.712,0.773 8.208,-2.318 7.69,-6.283 3.094,9.355 7.439,18.244 12.867,26.317 2.094,3.111 4.625,6.3 8.146,7.136 1.272,0.302 2.54,0.251 3.753,-0.08 0.699,-0.19 1.379,-0.472 2.029,-0.832 2.834,-1.565 5.135,-4.593 6.101,-7.89 1.579,-5.374 0.558,-11.164 -0.476,-16.679 1.347,4.197 7.539,4.347 10.381,1.084 0.8,-0.92 1.394,-1.974 1.82,-3.111 0.389,-1.027 0.641,-2.123 0.788,-3.248 0.271,-2.046 0.203,-4.194 -0.014,-6.232 C -2.145,28.46 -6.809,17.854 -11.43,7.486 c 1.767,3.697 7.654,2.96 9.868,-0.544 C -0.951,5.978 -0.545,4.929 -0.301,3.827 -0.021,2.6 0.056,1.31 0,0"
             style="fill:#fbc03f;fill-opacity:1;fill-rule:nonzero;stroke:none"
             id="path5090"
             inkscape:connector-curvature="0" /></g><g
           id="g5092"
           transform="translate(457.6519,219.5185)"><path
             d="m 0,0 c -0.632,-0.845 -1.28,-1.679 -1.932,-2.496 -14.234,-17.867 -34.639,-29.749 -56.498,-33.019 -7.012,-11.88 -14.861,-23.195 -23.46,-33.83 5.547,-0.226 11.117,-0.009 16.623,0.675 11.514,1.431 22.849,4.969 33.271,10.323 6.371,3.277 12.305,7.191 17.921,11.604 0.013,-0.18 0.021,-0.362 0.024,-0.542 0.021,-1.164 -0.117,-2.302 -0.381,-3.409 -0.876,-0.698 -1.764,-1.374 -2.659,-2.035 -19.408,-14.34 -43.708,-21.662 -67.371,-19.752 -3.411,-4.093 -6.935,-8.081 -10.567,-11.956 -0.968,0.552 -1.903,1.168 -2.797,1.851 2.929,3.087 5.786,6.248 8.574,9.482 -2.945,4.137 -5.344,8.875 -7.535,13.46 -4.303,8.996 -7.53,18.578 -9.597,28.415 -1.022,4.869 -1.732,9.783 -2.121,14.75 -0.081,1.049 -0.162,2.115 -0.227,3.191 0.675,0.452 1.424,0.745 2.253,0.831 0.172,-1.964 0.378,-3.925 0.628,-5.877 1.24,-9.661 3.445,-19.183 6.74,-28.296 1.648,-4.562 3.57,-9.014 5.736,-13.329 1.867,-3.724 4.073,-7.186 6.166,-10.746 2.37,2.811 4.688,5.675 6.95,8.587 2.654,3.415 5.231,6.892 7.733,10.43 -2.763,5.596 -5.058,11.454 -6.802,17.492 -3.206,11.095 -4.597,22.752 -4.122,34.337 0.258,6.358 0.948,12.685 1.57,19.01 0.111,1.144 0.225,2.285 0.345,3.426 0.137,0.091 0.282,0.171 0.43,0.245 0.662,0.324 1.369,0.453 2.08,0.418 -0.15,-1.98 -0.307,-3.962 -0.467,-5.943 -0.96,-11.971 -1.991,-23.792 -0.344,-35.763 1.462,-10.615 4.607,-20.961 9.189,-30.531 3.476,5.034 6.796,10.184 9.959,15.441 0.075,0.202 0.183,0.389 0.328,0.549 3.201,5.354 6.239,10.817 9.102,16.383 -0.086,0.117 -0.162,0.252 -0.22,0.412 -1.034,2.783 -1.649,5.81 -2.316,8.714 -0.656,2.848 -1.231,5.717 -1.736,8.599 -1.785,10.213 -2.683,20.594 -2.641,30.978 0.021,5.26 0.318,10.519 0.844,15.745 0.013,0.145 0.029,0.286 0.042,0.431 0.784,0.529 1.62,0.95 2.514,1.223 -0.143,-1.308 -0.267,-2.618 -0.363,-3.93 -0.747,-10.215 -0.633,-20.524 0.379,-30.721 0.507,-5.103 1.245,-10.181 2.216,-15.213 0.486,-2.533 1.032,-5.056 1.627,-7.564 0.421,-1.759 0.934,-3.498 1.384,-5.253 3.71,7.457 7.113,15.088 10.187,22.877 5.144,13.031 9.38,26.473 12.654,40.168 1.634,6.831 3.024,13.727 4.165,20.668 0.341,2.082 0.659,4.165 0.959,6.254 0.699,-0.19 1.379,-0.472 2.029,-0.832 -0.385,-2.878 -0.836,-5.745 -1.314,-8.602 -1.3,-7.806 -2.92,-15.556 -4.84,-23.217 -3.277,-13.069 -7.446,-25.873 -12.429,-38.314 3.325,2.101 6.523,4.426 9.561,6.974 7.098,5.955 13.413,13.093 18.57,20.973 2.546,3.893 4.827,7.983 6.803,12.229 0.518,1.109 1.004,2.231 1.475,3.361 0.389,-1.027 0.641,-2.123 0.788,-3.248 -0.398,-0.901 -0.809,-1.793 -1.224,-2.672 -8.222,-17.457 -21.403,-32.075 -37.551,-41.479 -4.868,-11.688 -10.463,-23.04 -16.711,-33.967 4.949,0.891 9.821,2.258 14.548,4.043 10.129,3.822 19.684,9.613 27.92,16.931 4.124,3.664 7.983,7.657 11.456,12.014 0.751,0.941 1.475,1.898 2.181,2.869 C -0.021,2.6 0.056,1.31 0,0"
             style="fill:#fe9022;fill-opacity:1;fill-rule:nonzero;stroke:none"
             id="path5094"
             inkscape:connector-curvature="0" /></g><g
           id="g5096"
           transform="translate(331.7671,138.1865)"><path
             d="m 0,0 -117.491,0 9.108,41.122 9.106,41.122 81.059,0 L -9.109,41.122 0,0 z"
             style="fill:#e1dcfd;fill-opacity:1;fill-rule:nonzero;stroke:none"
             id="path5098"
             inkscape:connector-curvature="0" /></g><path
           d="m 337.64,131.985 -129.24,0 0,11.097 129.24,0 0,-11.097 z"
           style="fill:#c9b8fe;fill-opacity:1;fill-rule:nonzero;stroke:none"
           id="path5100"
           inkscape:connector-curvature="0" /><g
           id="g5102"
           transform="translate(322.6577,179.3086)"><path
             d="m 0,0 -99.273,0 9.105,41.122 81.06,0 L 0,0 z"
             style="fill:#ae98fe;fill-opacity:1;fill-rule:nonzero;stroke:none"
             id="path5104"
             inkscape:connector-curvature="0" /></g><g
           id="g5106"
           transform="translate(416.9468,374.3672)"><path
             d="m 0,0 0,-169.821 c 0,-8.71 -7.062,-15.773 -15.772,-15.773 l -256.308,0 c -8.711,0 -15.774,7.063 -15.774,15.773 l 0,169.821 c 0,8.71 7.063,15.773 15.774,15.773 l 256.308,0 C -7.062,15.773 0,8.71 0,0"
             style="fill:#e1dcfd;fill-opacity:1;fill-rule:nonzero;stroke:none"
             id="path5108"
             inkscape:connector-curvature="0" /></g><path
           d="m 402.587,205.697 -259.134,0 0,167.519 259.134,0 0,-167.519 z"
           style="fill:#342e73;fill-opacity:1;fill-rule:nonzero;stroke:none"
           id="path5110"
           inkscape:connector-curvature="0" /><g
           id="g5112"
           transform="translate(416.9468,230.874)"><path
             d="m 0,0 0,-26.328 c 0,-8.71 -7.062,-15.773 -15.772,-15.773 l -256.308,0 c -8.711,0 -15.774,7.063 -15.774,15.773 L -287.854,0 0,0 z"
             style="fill:#c9b8fe;fill-opacity:1;fill-rule:nonzero;stroke:none"
             id="path5114"
             inkscape:connector-curvature="0" /></g><g
           id="g5116"
           transform="translate(346.4068,394.543)"><path
             d="m 0,0 0,-163.669 -150.455,0 0,163.669 c 0,3.335 2.706,6.041 6.041,6.041 l 138.373,0 C -2.706,6.041 0,3.335 0,0"
             style="fill:#ffffff;fill-opacity:1;fill-rule:nonzero;stroke:none"
             id="path5118"
             inkscape:connector-curvature="0" /></g><g
           id="g5120"
           transform="translate(346.4068,394.543)"><path
             d="m 0,0 0,-12.235 -150.455,0 0,12.235 c 0,3.335 2.706,6.041 6.041,6.041 l 138.373,0 C -2.706,6.041 0,3.335 0,0"
             style="fill:#514d96;fill-opacity:1;fill-rule:nonzero;stroke:none"
             id="path5122"
             inkscape:connector-curvature="0" /></g><g
           id="g5124"
           transform="translate(327.8033,391.6089)"><path
             d="m 0,0 c 0,-2.253 -1.826,-4.08 -4.079,-4.08 -2.253,0 -4.08,1.827 -4.08,4.08 0,2.253 1.827,4.08 4.08,4.08 C -1.826,4.08 0,2.253 0,0"
             style="fill:#fa6e5b;fill-opacity:1;fill-rule:nonzero;stroke:none"
             id="path5126"
             inkscape:connector-curvature="0" /></g><g
           id="g5128"
           transform="translate(339.8794,391.6089)"><path
             d="m 0,0 c 0,-2.253 -1.827,-4.08 -4.08,-4.08 -2.253,0 -4.079,1.827 -4.079,4.08 0,2.253 1.826,4.08 4.079,4.08 C -1.827,4.08 0,2.253 0,0"
             style="fill:#fbc03f;fill-opacity:1;fill-rule:nonzero;stroke:none"
             id="path5130"
             inkscape:connector-curvature="0" /></g><g
           id="g5132"
           transform="translate(337.3277,316.9922)"><path
             d="m 0,0 c 0,-9.036 -7.325,-16.361 -16.361,-16.361 -9.036,0 -16.361,7.325 -16.361,16.361 0,9.036 7.325,16.36 16.361,16.36 C -7.325,16.36 0,9.036 0,0"
             style="fill:#fa6e5b;fill-opacity:1;fill-rule:nonzero;stroke:none"
             id="path5134"
             inkscape:connector-curvature="0" /></g><g
           id="g5136"
           transform="translate(324.9986,321.7739)"><path
             d="m 0,0 0,-9.564 c 0,-0.604 -0.489,-1.094 -1.093,-1.094 l -12.681,0 c -0.38,0 -0.716,0.194 -0.912,0.49 -0.114,0.172 -0.181,0.38 -0.181,0.604 l 0,9.564 c 0,0.604 0.489,1.094 1.093,1.094 l 12.681,0 c 0.282,0 0.539,-0.108 0.733,-0.282 C -0.139,0.611 0,0.322 0,0"
             style="fill:#ffffff;fill-opacity:1;fill-rule:nonzero;stroke:none"
             id="path5138"
             inkscape:connector-curvature="0" /></g><g
           id="g5140"
           transform="translate(326.3228,318.8467)"><path
             d="m 0,0 c -0.177,-0.071 -0.293,-0.242 -0.293,-0.432 l 0,-0.484 0,-1.878 0,-0.483 c 0,-0.191 0.116,-0.362 0.293,-0.432 l 4.84,-1.942 c 0.306,-0.122 0.639,0.103 0.639,0.432 l 0,1.645 0,3.438 0,1.645 c 0,0.33 -0.333,0.555 -0.639,0.432 L 0,0 z"
             style="fill:#ffffff;fill-opacity:1;fill-rule:nonzero;stroke:none"
             id="path5142"
             inkscape:connector-curvature="0" /></g><g
           id="g5144"
           transform="translate(326.5474,192.4609)"><path
             d="m 0,0 c -0.051,-0.004 -0.104,-0.006 -0.155,-0.005 l -24.33,0.613 c -0.558,0.015 -1.042,0.388 -1.198,0.923 l -5.781,19.915 c -0.197,0.679 0.194,1.39 0.873,1.587 0.68,0.196 1.39,-0.193 1.587,-0.873 L -23.484,3.146 -0.091,2.555 C 0.616,2.537 1.175,1.95 1.156,1.243 1.141,0.589 0.636,0.062 0,0"
             style="fill:#ffffff;fill-opacity:1;fill-rule:nonzero;stroke:none"
             id="path5146"
             inkscape:connector-curvature="0" /></g><g
           id="g5148"
           transform="translate(363.0464,106.7148)"><path
             d="m 0,0 c -0.316,-0.487 -0.639,-0.986 -0.783,-1.552 -0.476,-1.866 1.238,-2.314 2.673,-2.051 3.382,0.623 5.521,1.776 8.642,3.237 0.531,0.249 1.074,0.518 1.454,0.97 1.417,1.68 0.177,4.896 -1.01,6.08 C 10.681,6.979 10.356,7.255 9.973,7.411 9.591,7.567 9.169,7.597 8.757,7.591 4.03,7.517 2.269,3.486 0,0"
             style="fill:#c9b8fe;fill-opacity:1;fill-rule:nonzero;stroke:none"
             id="path5150"
             inkscape:connector-curvature="0" /></g><g
           id="g5152"
           transform="translate(336.4361,106.5849)"><path
             d="m 0,0 c -0.402,-0.406 -0.812,-0.823 -1.061,-1.345 -0.818,-1.721 0.775,-2.541 2.228,-2.601 3.43,-0.143 5.74,0.51 9.072,1.247 0.567,0.125 1.15,0.269 1.607,0.626 1.704,1.33 1.099,4.753 0.161,6.176 -0.234,0.353 -0.498,0.696 -0.844,0.934 -0.345,0.238 -0.752,0.36 -1.156,0.445 C 5.367,6.461 2.88,2.908 0,0"
             style="fill:#c9b8fe;fill-opacity:1;fill-rule:nonzero;stroke:none"
             id="path5154"
             inkscape:connector-curvature="0" /></g><g
           id="g5156"
           transform="translate(336.8452,150.5381)"><path
             d="m 0,0 c 0.608,-13.55 2.288,-26.805 3.968,-39.93 l 7.078,0.774 c -0.767,13.211 -0.13,26.343 0.193,39.279 0.15,6.082 0.541,12.112 1.259,18.042 l 1.779,0 c 2.871,-19.806 8.226,-39.188 14.988,-57.639 l 7.468,2.9 C 30.308,-14.718 26.769,8.023 26.194,30.728 l -25.187,0 C 0.575,27.318 0.271,23.904 0.07,20.502 -0.332,13.615 -0.303,6.771 0,0"
             style="fill:#342e73;fill-opacity:1;fill-rule:nonzero;stroke:none"
             id="path5158"
             inkscape:connector-curvature="0" /></g><g
           id="g5160"
           transform="translate(310.7281,207.9404)"><path
             d="m 0,0 c -0.713,0.149 -1.459,0.27 -2.163,0.081 -0.493,-0.132 -0.936,-0.408 -1.353,-0.704 -1.17,-0.83 -2.208,-1.848 -3.062,-3 -0.294,-0.396 0.005,-0.959 0.497,-0.947 1.135,0.028 2.442,0.863 3.555,0.432 0.903,-0.349 1.343,-1.423 2.217,-1.841 0.386,-0.186 0.824,-0.226 1.252,-0.245 0.569,-0.025 1.138,-0.018 1.706,0.013 0.975,0.054 2.193,0.168 2.833,0.982 C 8.202,-1.778 2.046,-0.432 0,0"
             style="fill:#fecaa0;fill-opacity:1;fill-rule:nonzero;stroke:none"
             id="path5162"
             inkscape:connector-curvature="0" /></g><g
           id="g5164"
           transform="translate(343.6031,212.8154)"><path
             d="m 0,0 -13.394,-15.065 c -0.735,-0.827 -1.871,-1.168 -2.934,-0.895 -0.053,0.013 -0.104,0.029 -0.155,0.045 l -13.943,4.41 2.188,5.485 11.71,-3.705 12.125,13.638 c 1.082,1.216 2.942,1.324 4.158,0.245 C 0.971,3.076 1.079,1.216 0,0"
             style="fill:#f1f1f1;fill-opacity:1;fill-rule:nonzero;stroke:none"
             id="path5166"
             inkscape:connector-curvature="0" /></g><g
           id="g5168"
           transform="translate(364.4273,207.2353)"><path
             d="m 0,0 0,-31.288 c -0.005,-2.176 -25.11,-1.347 -28.142,-0.899 -0.363,0.054 -0.759,0.131 -1.177,0.21 l 0,31.977 c 0,5.476 2.92,10.246 7.155,12.574 1.759,0.968 3.744,1.514 5.841,1.514 l 3.326,0 c 2.231,0 4.339,-0.62 6.183,-1.709 C -2.764,9.987 0,5.327 0,0"
             style="fill:#ffffff;fill-opacity:1;fill-rule:nonzero;stroke:none"
             id="path5170"
             inkscape:connector-curvature="0" /></g><g
           id="g5172"
           transform="translate(347.1724,214.9824)"><path
             d="m 0,0 -0.271,0.022 -1.443,0.121 c -0.404,0.034 -0.76,-0.267 -0.793,-0.671 L -2.603,-1.68 c -0.008,-0.102 0.004,-0.205 0.039,-0.302 l 0.674,-1.939 c 0.096,-0.274 0.343,-0.467 0.633,-0.49 l 0.611,-0.052 0.272,-0.022 0.611,-0.051 c 0.29,-0.025 0.567,0.124 0.705,0.379 l 0.988,1.8 c 0.049,0.09 0.079,0.189 0.088,0.292 l 0.095,1.151 c 0.034,0.404 -0.266,0.76 -0.671,0.793 L 0,0 z"
             style="fill:#fa6e5b;fill-opacity:1;fill-rule:nonzero;stroke:none"
             id="path5174"
             inkscape:connector-curvature="0" /></g><g
           id="g5176"
           transform="translate(348.0503,212.2724)"><path
             d="m 0,0 -1.232,0.103 -1.232,0.102 -3.096,-20.369 2.374,-3.145 2.863,2.708 L 0,0 z"
             style="fill:#fa6e5b;fill-opacity:1;fill-rule:nonzero;stroke:none"
             id="path5178"
             inkscape:connector-curvature="0" /></g><g
           id="g5180"
           transform="translate(313.98,191.6748)"><path
             d="m 0,0 c -0.827,0.183 -1.691,0.41 -2.295,1.005 -0.602,0.594 -0.809,1.673 -0.215,2.274 0.379,0.382 0.954,0.473 1.489,0.53 C 0.664,3.99 2.361,4.045 4.055,3.974 3.772,4.264 3.68,4.723 3.826,5.1 3.973,5.477 4.352,5.752 4.755,5.775 5.15,5.798 5.522,5.603 5.87,5.412 7.451,4.547 9.033,3.682 10.614,2.816 10.744,2.746 10.879,2.67 10.957,2.544 11.047,2.399 11.043,2.218 11.03,2.048 10.972,1.257 10.78,-0.321 10.098,-0.851 9.485,-1.325 8.169,-1.029 7.459,-0.994 4.951,-0.871 2.453,-0.538 0,0"
             style="fill:#fecaa0;fill-opacity:1;fill-rule:nonzero;stroke:none"
             id="path5182"
             inkscape:connector-curvature="0" /></g><g
           id="g5184"
           transform="translate(337.6538,188.9394)"><path
             d="m 0,0 c -5.039,-0.237 -10.094,0.021 -15.119,0.778 l 0.981,6.517 C -6.185,6.097 1.851,6.261 9.747,7.783 c 0.507,0.098 1.854,0.358 2.2,0.746 0.225,0.253 0.466,1.057 0.596,1.489 1.33,4.433 2.371,8.981 3.107,13.561 0.283,1.753 1.912,2.961 3.673,2.733 1.842,-0.239 3.127,-1.953 2.832,-3.787 C 21.373,17.662 20.267,12.832 18.854,8.124 18.454,6.792 17.972,5.388 16.87,4.149 15.04,2.093 12.408,1.585 10.994,1.312 7.351,0.61 3.68,0.173 0,0"
             style="fill:#f1f1f1;fill-opacity:1;fill-rule:nonzero;stroke:none"
             id="path5186"
             inkscape:connector-curvature="0" /></g><g
           id="g5188"
           transform="translate(363.9595,240.1523)"><path
             d="m 0,0 c 1.641,-5.518 -0.528,-11.955 -5.173,-15.355 -1.307,-0.957 -2.785,-1.693 -3.955,-2.814 -0.451,-0.433 -0.866,-0.928 -1.432,-1.192 -1.272,-0.594 -2.85,0.272 -3.498,1.518 -0.648,1.247 -0.595,2.731 -0.452,4.129 0.241,2.341 0.695,4.655 1.23,6.947 0.589,2.519 1.297,5.057 2.685,7.24 C -7.589,5.197 -1.876,6.311 0,0"
             style="fill:#fe9022;fill-opacity:1;fill-rule:nonzero;stroke:none"
             id="path5190"
             inkscape:connector-curvature="0" /></g><g
           id="g5192"
           transform="translate(352.1197,230.915)"><path
             d="m 0,0 0,-11.139 c 0,-2.192 -1.777,-3.969 -3.97,-3.969 -2.191,0 -3.968,1.777 -3.968,3.969 L -7.938,0 0,0 z"
             style="fill:#fecaa0;fill-opacity:1;fill-rule:nonzero;stroke:none"
             id="path5194"
             inkscape:connector-curvature="0" /></g><g
           id="g5196"
           transform="translate(352.1197,228.2471)"><path
             d="m 0,0 0,-8.194 c -1.7,0.304 -3.902,0.704 -4.228,0.801 -1.286,0.386 -2.535,0.878 -3.71,1.511 -0.736,0.395 -1.442,0.842 -2.111,1.35 -2.497,1.899 0.067,2.916 2.111,3.738 0.002,0.003 0.007,0.003 0.009,0.005 2.152,0.866 4.469,1.324 6.786,1.329 0.229,0 0.461,-0.002 0.669,-0.095 C -0.269,0.354 -0.118,0.195 0,0"
             style="fill:#fab687;fill-opacity:1;fill-rule:nonzero;stroke:none"
             id="path5198"
             inkscape:connector-curvature="0" /></g><g
           id="g5200"
           transform="translate(335.6031,236.0381)"><path
             d="m 0,0 c -0.749,-7.104 2.413,-13.259 8.32,-13.882 5.908,-0.624 11.304,4.629 12.054,11.732 0.749,7.102 -3.432,13.366 -9.339,13.989 C 5.128,12.463 0.75,7.103 0,0"
             style="fill:#fecaa0;fill-opacity:1;fill-rule:nonzero;stroke:none"
             id="path5202"
             inkscape:connector-curvature="0" /></g><g
           id="g5204"
           transform="translate(353.1324,232.9736)"><path
             d="m 0,0 c -0.706,-2 0.019,-4.08 1.619,-4.645 1.6,-0.565 3.47,0.599 4.176,2.599 C 6.502,-0.045 5.776,2.034 4.176,2.6 2.576,3.165 0.706,2.001 0,0"
             style="fill:#fecaa0;fill-opacity:1;fill-rule:nonzero;stroke:none"
             id="path5206"
             inkscape:connector-curvature="0" /></g><g
           id="g5208"
           transform="translate(357.8384,249.5264)"><path
             d="m 0,0 c -0.757,0.512 -1.539,0.942 -2.299,1.271 -4.025,1.748 -7.883,1.206 -12.088,0.887 -2.625,-0.199 -6.433,0.457 -7.981,-2.299 -2.514,-4.475 0.547,-8.132 4.602,-9.792 5.12,-2.094 11.195,-3.315 16.713,-2.45 2.925,0.459 6.526,2.534 5.87,5.967 C 4.324,-3.835 2.277,-1.542 0,0"
             style="fill:#fe9022;fill-opacity:1;fill-rule:nonzero;stroke:none"
             id="path5210"
             inkscape:connector-curvature="0" /></g><g
           id="g5212"
           transform="translate(362.9038,294.9639)"><path
             d="m 0,0 53.58,0 c 1.661,0 3.019,-1.358 3.019,-3.019 l 0,-27.418 c 0,-1.661 -1.358,-3.019 -3.019,-3.019 l -39.842,0 -9.354,-11.962 c -0.613,-0.783 -1.868,-0.35 -1.868,0.643 l 0,11.319 -2.516,0 c -1.66,0 -3.019,1.358 -3.019,3.019 l 0,27.418 C -3.019,-1.358 -1.66,0 0,0"
             style="fill:#ffffff;fill-opacity:1;fill-rule:nonzero;stroke:none"
             id="path5214"
             inkscape:connector-curvature="0" /></g><g
           id="g5216"
           transform="translate(401.7554,278.2358)"><path
             d="m 0,0 c 0,-2.261 1.833,-4.094 4.095,-4.094 2.26,0 4.093,1.833 4.093,4.094 0,2.261 -1.833,4.094 -4.093,4.094 C 1.833,4.094 0,2.261 0,0"
             style="fill:#ae98fe;fill-opacity:1;fill-rule:nonzero;stroke:none"
             id="path5218"
             inkscape:connector-curvature="0" /></g><g
           id="g5220"
           transform="translate(385.0972,278.2358)"><path
             d="m 0,0 c 0,-2.261 1.833,-4.094 4.094,-4.094 2.261,0 4.094,1.833 4.094,4.094 0,2.261 -1.833,4.094 -4.094,4.094 C 1.833,4.094 0,2.261 0,0"
             style="fill:#ae98fe;fill-opacity:1;fill-rule:nonzero;stroke:none"
             id="path5222"
             inkscape:connector-curvature="0" /></g><g
           id="g5224"
           transform="translate(368.438,278.2358)"><path
             d="m 0,0 c 0,-2.261 1.833,-4.094 4.095,-4.094 2.26,0 4.093,1.833 4.093,4.094 0,2.261 -1.833,4.094 -4.093,4.094 C 1.833,4.094 0,2.261 0,0"
             style="fill:#ae98fe;fill-opacity:1;fill-rule:nonzero;stroke:none"
             id="path5226"
             inkscape:connector-curvature="0" /></g><g
           id="g5228"
           transform="translate(196.1338,131.3349)"><path
             d="m 0,0 -100.512,0 c -2.12,0 -3.839,1.719 -3.839,3.839 l 0,170.419 c 0,2.12 1.719,3.839 3.839,3.839 l 100.512,0 c 2.12,0 3.839,-1.719 3.839,-3.839 l 0,-170.419 C 3.839,1.719 2.12,0 0,0"
             style="fill:#ae98fe;fill-opacity:1;fill-rule:nonzero;stroke:none"
             id="path5230"
             inkscape:connector-curvature="0" /></g><path
           d="m 191.378,153.805 -91.001,0 0,145.918 91.001,0 0,-145.918 z"
           style="fill:#514d96;fill-opacity:1;fill-rule:nonzero;stroke:none"
           id="path5232"
           inkscape:connector-curvature="0" /><path
           d="m 191.378,279.995 -91.001,0 0,19.728 91.001,0 0,-19.728 z"
           style="fill:#342e73;fill-opacity:1;fill-rule:nonzero;stroke:none"
           id="path5234"
           inkscape:connector-curvature="0" /><g
           id="g5236"
           transform="translate(154.2002,142.4306)"><path
             d="m 0,0 c 0,-4.596 -3.726,-8.322 -8.323,-8.322 -4.596,0 -8.322,3.726 -8.322,8.322 0,4.597 3.726,8.322 8.322,8.322 C -3.726,8.322 0,4.597 0,0"
             style="fill:#e1dcfd;fill-opacity:1;fill-rule:nonzero;stroke:none"
             id="path5238"
             inkscape:connector-curvature="0" /></g><g
           id="g5240"
           transform="translate(157.1065,247.831)"><path
             d="m 0,0 c 2.967,-4.215 4.796,-9.103 7.062,-13.732 2.266,-4.63 5.141,-9.194 9.498,-11.948 1.245,-0.787 2.603,-1.421 3.699,-2.405 1.096,-0.984 1.916,-2.446 1.646,-3.894 -0.301,-1.615 -1.798,-2.685 -3.174,-3.582 -1.195,-0.779 -2.39,-1.557 -3.585,-2.336 -0.549,-0.359 -1.098,-0.716 -1.647,-1.075 -0.699,-0.455 -1.398,-0.91 -2.13,-1.308 -1.817,-0.99 -3.829,-1.617 -5.887,-1.836 -0.802,-0.085 -1.635,-0.116 -2.357,-0.476 -0.511,-0.255 -0.929,-0.658 -1.383,-1.004 -2.124,-1.613 -4.936,-1.911 -7.593,-2.15 -1.046,-0.095 -2.146,-0.181 -3.106,0.246 -1.026,0.457 -1.722,1.427 -2.3,2.391 -1.153,1.922 -2.038,3.992 -2.92,6.053 -1.874,4.384 -3.749,8.768 -5.523,13.194 -1.577,3.932 -3.077,7.912 -4.055,12.035 -0.771,3.25 -1.207,6.689 -0.314,9.908 1.484,5.35 6.277,8.141 11.285,9.608 C -7.873,9.128 -2.524,3.586 0,0"
             style="fill:#fa8775;fill-opacity:1;fill-rule:nonzero;stroke:none"
             id="path5242"
             inkscape:connector-curvature="0" /></g><g
           id="g5244"
           transform="translate(114.0479,231.6279)"><path
             d="m 0,0 c 0.739,-5.102 2.767,-9.91 4.3,-14.832 1.533,-4.921 2.579,-10.212 1.304,-15.206 -0.364,-1.428 -0.917,-2.821 -1.037,-4.289 -0.12,-1.469 0.288,-3.094 1.479,-3.961 1.328,-0.966 3.151,-0.716 4.767,-0.423 1.403,0.255 2.807,0.51 4.21,0.764 l 1.935,0.351 c 0.821,0.149 1.642,0.298 2.447,0.511 2,0.529 3.894,1.456 5.54,2.71 0.641,0.489 1.268,1.039 2.039,1.273 0.547,0.165 1.128,0.161 1.695,0.221 2.653,0.286 4.9,2.001 6.995,3.652 0.825,0.65 1.684,1.343 2.088,2.313 0.433,1.037 0.273,2.22 0.03,3.317 -0.482,2.19 -1.26,4.301 -2.035,6.405 -1.649,4.473 -3.298,8.948 -5.049,13.382 C 29.153,0.13 27.51,4.053 25.39,7.721 23.717,10.612 21.671,13.411 18.812,15.138 14.058,18.006 8.658,16.742 4.01,14.369 -0.548,12.042 -0.628,4.34 0,0"
             style="fill:#fa8775;fill-opacity:1;fill-rule:nonzero;stroke:none"
             id="path5246"
             inkscape:connector-curvature="0" /></g><g
           id="g5248"
           transform="translate(176.1787,153.6533)"><path
             d="m 0,0 -12.842,0 c -0.738,12.064 -1.481,24.13 -2.22,36.198 -0.218,3.585 -0.433,7.175 -0.867,10.739 -0.343,2.837 -0.669,6.903 2.104,2.927 3.731,-5.344 6.101,-11.742 7.999,-18.105 C -2.756,21.477 -0.798,10.79 0,0"
             style="fill:#9baaf6;fill-opacity:1;fill-rule:nonzero;stroke:none"
             id="path5250"
             inkscape:connector-curvature="0" /></g><g
           id="g5252"
           transform="translate(168.0645,154.2978)"><path
             d="m 0,0 c 0,-0.215 -0.004,-0.43 -0.009,-0.645 l -51.075,0 c -0.004,0.215 -0.009,0.43 -0.009,0.645 0,0 -5.006,45.249 13.778,54.467 0.275,0.137 0.554,0.265 0.841,0.386 0.452,0.189 0.851,0.477 1.285,0.7 3.288,1.678 7.002,2.623 10.931,2.623 4.817,0 9.317,-1.425 13.103,-3.877 0.151,-0.094 0.301,-0.193 0.447,-0.296 1.288,-0.867 2.486,-1.859 3.581,-2.954 C -2.731,46.652 0,0 0,0"
             style="fill:#8391f5;fill-opacity:1;fill-rule:nonzero;stroke:none"
             id="path5254"
             inkscape:connector-curvature="0" /></g><g
           id="g5256"
           transform="translate(153.0371,180.2734)"><path
             d="m 0,0 c 0,-1.187 -0.961,-2.147 -2.147,-2.147 -1.186,0 -2.146,0.96 -2.146,2.147 0,1.186 0.96,2.146 2.146,2.146 C -0.961,2.146 0,1.186 0,0"
             style="fill:#ffffff;fill-opacity:1;fill-rule:nonzero;stroke:none"
             id="path5258"
             inkscape:connector-curvature="0" /></g><g
           id="g5260"
           transform="translate(153.0371,159.664)"><path
             d="m 0,0 c 0,-1.186 -0.961,-2.146 -2.147,-2.146 -1.186,0 -2.146,0.96 -2.146,2.146 0,1.186 0.96,2.147 2.146,2.147 C -0.961,2.147 0,1.186 0,0"
             style="fill:#ffffff;fill-opacity:1;fill-rule:nonzero;stroke:none"
             id="path5262"
             inkscape:connector-curvature="0" /></g><g
           id="g5264"
           transform="translate(157.3565,208.3008)"><path
             d="m 0,0 c -1.919,-7.741 -4.092,-15.418 -6.513,-23.021 -5.453,5.409 -10.391,11.338 -14.727,17.675 -0.949,1.387 -3.104,3.891 -4.526,6.196 0.421,0.245 0.851,0.477 1.285,0.7 3.288,1.679 7.002,2.623 10.931,2.623 4.817,0 9.317,-1.425 13.103,-3.877 C -0.296,0.202 -0.146,0.104 0,0"
             style="fill:#ffffff;fill-opacity:1;fill-rule:nonzero;stroke:none"
             id="path5266"
             inkscape:connector-curvature="0" /></g><g
           id="g5268"
           transform="translate(184.3091,184.5517)"><path
             d="M 0,0 C 0.414,0.403 0.853,0.809 1.395,1.01 1.937,1.212 2.612,1.164 3.011,0.745 3.542,0.187 3.372,-0.73 3.031,-1.421 2.69,-2.112 2.204,-2.78 2.195,-3.551 l 6.419,4.527 c 0.432,0.304 0.879,0.615 1.393,0.737 0.515,0.121 1.121,0.01 1.443,-0.409 0.29,-0.377 0.289,-0.896 0.255,-1.37 C 11.471,-3.318 10.17,-6.685 7.473,-8.517 6.583,-9.12 5.58,-9.534 4.568,-9.899 c -1.924,-0.694 -3.907,-1.225 -5.921,-1.584 -0.934,-0.167 -1.948,-0.287 -2.79,0.152 -0.922,0.479 -1.408,1.51 -1.718,2.502 -0.264,0.843 -0.446,1.75 -0.226,2.606 0.337,1.312 1.795,1.697 2.688,2.495 C -2.174,-2.63 -1.191,-1.159 0,0"
             style="fill:#fecaa0;fill-opacity:1;fill-rule:nonzero;stroke:none"
             id="path5270"
             inkscape:connector-curvature="0" /></g><g
           id="g5272"
           transform="translate(183.9805,173.4209)"><path
             d="m 0,0 c 0.003,-0.908 -0.551,-1.729 -1.402,-2.048 -6.249,-2.337 -12.46,-4.365 -18.993,-6.055 -4.997,-1.292 -10.372,-2.472 -15.976,-2.472 -0.386,0 -0.772,0.004 -1.159,0.017 -2.249,0.065 -5.611,0.357 -8.771,2.091 -5.273,2.89 -7.535,8.274 -9.03,11.837 l -5.791,13.79 c -1.336,3.169 0.159,6.819 3.327,8.15 0.786,0.331 1.606,0.485 2.409,0.485 2.43,0 4.74,-1.43 5.74,-3.813 l 5.792,-13.791 c 0.829,-1.965 2.078,-4.941 3.538,-5.744 0.906,-0.494 2.597,-0.546 3.155,-0.558 4.466,-0.133 9.202,0.91 13.649,2.061 6.253,1.618 12.475,3.569 18.553,5.814 0.896,0.331 1.928,0.058 2.476,-0.725 l 0.01,-0.015 C -1.559,7.693 -0.911,6.17 -0.524,4.606 -0.152,3.097 -0.004,1.554 0,0"
             style="fill:#9baaf6;fill-opacity:1;fill-rule:nonzero;stroke:none"
             id="path5274"
             inkscape:connector-curvature="0" /></g><g
           id="g5276"
           transform="translate(137.7232,225.7842)"><path
             d="m 0,0 0,-18.677 c 0,-3.676 2.98,-6.655 6.655,-6.655 3.675,0 6.655,2.979 6.655,6.655 L 13.31,0 0,0 z"
             style="fill:#fecaa0;fill-opacity:1;fill-rule:nonzero;stroke:none"
             id="path5278"
             inkscape:connector-curvature="0" /></g><g
           id="g5280"
           transform="translate(137.7232,221.3105)"><path
             d="m 0,0 0,-13.739 c 2.851,0.51 6.543,1.18 7.088,1.343 2.156,0.649 4.251,1.473 6.222,2.534 1.232,0.661 2.417,1.412 3.538,2.262 4.186,3.186 -0.112,4.89 -3.538,6.269 -0.004,0.004 -0.013,0.004 -0.018,0.008 C 9.686,0.128 5.8,0.896 1.915,0.905 1.533,0.905 1.142,0.901 0.794,0.747 0.451,0.592 0.198,0.326 0,0"
             style="fill:#fab687;fill-opacity:1;fill-rule:nonzero;stroke:none"
             id="path5282"
             inkscape:connector-curvature="0" /></g><g
           id="g5284"
           transform="translate(159.4922,237.4678)"><path
             d="m 0,0 c 4.426,-11.127 2.108,-22.496 -7.146,-26.177 -9.254,-3.681 -20.344,2.355 -24.77,13.482 -4.426,11.127 -0.512,23.131 8.742,26.811 C -13.92,17.797 -4.426,11.127 0,0"
             style="fill:#fecaa0;fill-opacity:1;fill-rule:nonzero;stroke:none"
             id="path5286"
             inkscape:connector-curvature="0" /></g><g
           id="g5288"
           transform="translate(132.5821,224.5849)"><path
             d="m 0,0 c 2.046,-2.909 1.817,-6.595 -0.51,-8.231 -2.328,-1.637 -5.873,-0.605 -7.919,2.304 -2.046,2.909 -1.818,6.595 0.511,8.232 C -5.591,3.941 -2.046,2.909 0,0"
             style="fill:#fecaa0;fill-opacity:1;fill-rule:nonzero;stroke:none"
             id="path5290"
             inkscape:connector-curvature="0" /></g><g
           id="g5292"
           transform="translate(150.3882,258.6543)"><path
             d="m 0,0 c 5.192,-1.136 10.232,-4.241 12.367,-9.108 0.739,-1.686 1.087,-3.705 0.218,-5.328 -0.481,-0.901 -1.291,-1.585 -2.151,-2.137 -4.795,-3.073 -10.989,-2.393 -16.629,-1.601 0.981,-1.988 -1.124,-4.086 -3.071,-5.145 -4.903,-2.667 -10.49,-4.065 -16.072,-4.022 -2.969,0.024 -6.205,0.586 -8.169,2.813 -2.867,3.25 -1.675,8.417 0.609,12.1 C -26.171,-1.574 -12.097,2.646 0,0"
             style="fill:#fa8775;fill-opacity:1;fill-rule:nonzero;stroke:none"
             id="path5294"
             inkscape:connector-curvature="0" /></g><g
           id="g5296"
           transform="translate(158.7993,229.0195)"><path
             d="m 0,0 c -3.022,-1.202 -6.348,-0.001 -7.413,2.678 -0.831,2.088 0.346,3.456 4.341,5.045 3.995,1.589 5.79,1.403 6.62,-0.685 C 4.614,4.359 3.022,1.202 0,0 m -16.193,-6.441 c -3.022,-1.203 -6.347,-0.001 -7.413,2.677 -0.831,2.089 0.346,3.456 4.341,5.045 3.995,1.59 5.79,1.405 6.62,-0.684 1.066,-2.679 -0.526,-5.836 -3.548,-7.038 M 5.043,7.633 c -1.734,4.359 -6.445,2.485 -8.71,1.585 -2.126,-0.847 -6.41,-2.551 -5.487,-6.367 l -2.345,-0.933 c -1.949,3.408 -6.234,1.704 -8.36,0.858 -1.344,-0.534 -3.539,-1.417 -4.748,-2.952 -0.114,0.042 -0.235,0.067 -0.363,0.064 l -11.335,-0.313 c -0.54,-0.014 -0.966,-0.465 -0.951,-1.005 0.015,-0.54 0.465,-0.966 1.005,-0.951 l 10.811,0.298 c -0.086,-0.672 0.002,-1.425 0.339,-2.275 1.394,-3.502 5.657,-5.108 9.503,-3.578 3.568,1.419 5.541,5.046 4.696,8.36 l 2.341,0.931 c 1.662,-2.989 5.587,-4.269 9.156,-2.85 3.846,1.53 5.842,5.625 4.448,9.128"
             style="fill:#ffffff;fill-opacity:1;fill-rule:nonzero;stroke:none"
             id="path5298"
             inkscape:connector-curvature="0" /></g><g
           id="g5300"
           transform="translate(160.5386,169.539)"><path
             d="m 0,0 c 0,-7.681 -6.226,-13.906 -13.907,-13.906 -7.68,0 -13.906,6.225 -13.906,13.906 0,7.681 6.226,13.907 13.906,13.907 C -6.226,13.907 0,7.681 0,0"
             style="fill:#fa6e5b;fill-opacity:1;fill-rule:nonzero;stroke:none"
             id="path5302"
             inkscape:connector-curvature="0" /></g><g
           id="g5304"
           transform="translate(150.0596,173.6035)"><path
             d="m 0,0 0,-8.13 c 0,-0.513 -0.416,-0.929 -0.929,-0.929 l -10.779,0 c -0.324,0 -0.609,0.165 -0.774,0.416 -0.098,0.147 -0.156,0.324 -0.156,0.513 l 0,8.13 c 0,0.514 0.416,0.931 0.93,0.931 l 10.779,0 c 0.24,0 0.458,-0.092 0.622,-0.241 C -0.118,0.521 0,0.274 0,0"
             style="fill:#ffffff;fill-opacity:1;fill-rule:nonzero;stroke:none"
             id="path5306"
             inkscape:connector-curvature="0" /></g><g
           id="g5308"
           transform="translate(151.1851,171.1162)"><path
             d="m 0,0 c -0.15,-0.061 -0.249,-0.206 -0.249,-0.368 l 0,-0.41 0,-1.597 0,-0.411 c 0,-0.162 0.099,-0.308 0.249,-0.367 l 4.114,-1.651 c 0.26,-0.104 0.543,0.087 0.543,0.367 l 0,1.399 0,2.923 0,1.397 c 0,0.28 -0.283,0.472 -0.543,0.367 L 0,0 z"
             style="fill:#ffffff;fill-opacity:1;fill-rule:nonzero;stroke:none"
             id="path5310"
             inkscape:connector-curvature="0" /></g><g
           id="g5312"
           transform="translate(186.5796,289.8486)"><path
             d="m 0,0 c 0,-2.333 -1.891,-4.223 -4.223,-4.223 -2.332,0 -4.223,1.89 -4.223,4.223 0,2.332 1.891,4.223 4.223,4.223 C -1.891,4.223 0,2.332 0,0"
             style="fill:#fbc03f;fill-opacity:1;fill-rule:nonzero;stroke:none"
             id="path5314"
             inkscape:connector-curvature="0" /></g><g
           id="g5316"
           transform="translate(123.2447,284.354)"><path
             d="m 0,0 -59.088,0 c -1.831,0 -3.329,-1.498 -3.329,-3.329 l 0,-30.237 c 0,-1.831 1.498,-3.329 3.329,-3.329 l 43.938,0 10.317,-13.192 c 0.674,-0.864 2.059,-0.386 2.059,0.71 l 0,12.482 2.774,0 c 1.831,0 3.329,1.498 3.329,3.329 l 0,30.237 C 3.329,-1.498 1.831,0 0,0"
             style="fill:#ffffff;fill-opacity:1;fill-rule:nonzero;stroke:none"
             id="path5318"
             inkscape:connector-curvature="0" /></g><g
           id="g5320"
           transform="translate(80.399,265.9062)"><path
             d="m 0,0 c 0,-2.494 -2.021,-4.515 -4.515,-4.515 -2.493,0 -4.515,2.021 -4.515,4.515 0,2.494 2.022,4.515 4.515,4.515 C -2.021,4.515 0,2.494 0,0"
             style="fill:#ae98fe;fill-opacity:1;fill-rule:nonzero;stroke:none"
             id="path5322"
             inkscape:connector-curvature="0" /></g><g
           id="g5324"
           transform="translate(98.7706,265.9062)"><path
             d="m 0,0 c 0,-2.494 -2.021,-4.515 -4.515,-4.515 -2.494,0 -4.515,2.021 -4.515,4.515 0,2.494 2.021,4.515 4.515,4.515 C -2.021,4.515 0,2.494 0,0"
             style="fill:#ae98fe;fill-opacity:1;fill-rule:nonzero;stroke:none"
             id="path5326"
             inkscape:connector-curvature="0" /></g><g
           id="g5328"
           transform="translate(117.1421,265.9062)"><path
             d="m 0,0 c 0,-2.494 -2.021,-4.515 -4.515,-4.515 -2.494,0 -4.515,2.021 -4.515,4.515 0,2.494 2.021,4.515 4.515,4.515 C -2.021,4.515 0,2.494 0,0"
             style="fill:#ae98fe;fill-opacity:1;fill-rule:nonzero;stroke:none"
             id="path5330"
             inkscape:connector-curvature="0" /></g><g
           id="g5332"
           transform="translate(242.1783,167.1777)"><path
             d="m 0,0 c -1.899,-7.083 -6.089,-13.664 -12.181,-17.418 -2.341,-1.442 -5.465,-2.609 -8.671,-3.07 -0.432,-0.064 -0.866,-0.114 -1.298,-0.15 -3.615,-0.295 -7.212,0.373 -9.781,2.614 -5.165,4.507 -9.526,11.491 -11.642,18.115 -0.493,1.544 -0.893,3.188 -0.606,4.788 0.098,0.545 0.297,1.084 0.577,1.565 0.191,0.326 0.418,0.625 0.676,0.881 0.484,0.48 1.076,0.811 1.741,0.904 2.053,0.282 3.691,-1.66 4.906,-3.399 -2.282,6.137 -3.128,12.843 -2.444,19.381 0.15,1.434 0.597,3.089 1.512,4.047 0.283,0.293 0.607,0.52 0.979,0.656 0.187,0.069 0.387,0.116 0.598,0.135 1.778,0.162 3.052,-1.68 3.931,-3.294 -0.444,5.033 0.188,10.166 1.839,14.92 0.613,1.763 1.512,3.63 3.183,4.343 0.103,0.045 0.207,0.082 0.309,0.116 0.345,0.11 0.691,0.166 1.035,0.172 2.13,0.043 4.238,-1.759 5.63,-3.627 3.616,-4.853 5.633,-10.96 5.648,-17.091 0.235,1.952 1.79,3.652 3.656,3.998 0.93,0.174 1.901,0.004 2.749,-0.428 0.315,-0.16 0.614,-0.354 0.886,-0.582 0.465,-0.389 0.859,-0.868 1.135,-1.419 0.502,-1 0.635,-2.151 0.725,-3.273 0.414,-5.279 -0.008,-10.622 -1.245,-15.76 0.508,1.383 2.245,2.159 3.656,1.721 0.455,-0.142 0.871,-0.377 1.235,-0.68 C -1,7.945 -0.762,7.691 -0.553,7.411 -0.043,6.733 0.305,5.901 0.461,5.058 0.77,3.378 0.44,1.646 0,0"
             style="fill:#8391f5;fill-opacity:1;fill-rule:nonzero;stroke:none"
             id="path5334"
             inkscape:connector-curvature="0" /></g><g
           id="g5336"
           transform="translate(241.625,174.5889)"><path
             d="m 0,0 c -1.483,-3.9 -3.824,-7.516 -6.491,-10.665 -3.757,-4.439 -8.471,-8.077 -13.756,-10.514 0,-1.336 -0.004,-2.672 -0.016,-4.007 -0.008,-0.905 -0.021,-1.808 -0.035,-2.713 -0.432,-0.064 -0.867,-0.114 -1.299,-0.15 0.033,1.757 0.052,3.515 0.057,5.273 0,0.257 -0.002,0.515 -0.002,0.773 -0.053,0.011 -0.108,0.024 -0.163,0.05 -5.193,2.408 -9.896,5.816 -13.806,9.997 -1.894,2.023 -3.621,4.226 -5.106,6.567 -0.787,1.239 -1.506,2.528 -2.149,3.846 -0.092,0.189 -0.186,0.38 -0.282,0.576 0.19,0.325 0.418,0.625 0.675,0.881 0.179,-0.371 0.357,-0.739 0.543,-1.092 0.64,-1.206 1.342,-2.374 2.085,-3.519 1.52,-2.339 3.237,-4.534 5.162,-6.554 3.734,-3.917 8.154,-7.122 13.04,-9.445 -0.009,5.089 -0.115,10.176 -0.316,15.258 -4.799,2.355 -8.402,6.584 -10.714,11.343 -1.334,2.742 -2.26,5.667 -2.931,8.638 -0.461,2.044 -0.904,4.176 -1.154,6.304 0.283,0.293 0.607,0.52 0.979,0.656 0.348,-2.106 0.605,-4.232 1.078,-6.317 0.667,-2.948 1.569,-5.869 2.892,-8.593 2.155,-4.439 5.414,-8.371 9.794,-10.706 -0.202,4.748 -0.481,9.492 -0.835,14.231 -0.694,9.25 -1.845,18.424 -3.068,27.605 0.344,0.11 0.69,0.166 1.034,0.172 0.692,-4.316 1.249,-8.658 1.772,-12.993 1.178,-9.767 1.981,-19.577 2.405,-29.404 0.356,0.284 0.739,0.543 1.081,0.831 0.578,0.483 1.135,0.993 1.67,1.526 1.058,1.055 2.025,2.2 2.894,3.416 1.695,2.373 3.094,4.963 4.28,7.623 1.252,2.803 2.213,5.726 2.946,8.705 0.258,1.045 0.461,2.095 0.635,3.148 0.315,-0.16 0.614,-0.354 0.887,-0.582 -0.189,-1.075 -0.414,-2.141 -0.656,-3.186 -0.696,-3.016 -1.716,-5.959 -2.97,-8.788 -1.298,-2.937 -2.855,-5.8 -4.797,-8.363 -0.883,-1.166 -1.849,-2.262 -2.91,-3.267 -0.877,-0.828 -1.887,-1.866 -3.011,-2.38 0.033,-0.836 0.069,-1.669 0.096,-2.503 0.127,-3.86 0.194,-7.718 0.209,-11.577 4.885,2.349 9.235,5.668 12.794,9.77 2.849,3.283 4.983,6.977 6.751,10.883 C -0.446,0.534 -0.209,0.28 0,0"
             style="fill:#5f5ea9;fill-opacity:1;fill-rule:nonzero;stroke:none"
             id="path5338"
             inkscape:connector-curvature="0" /></g><g
           id="g5340"
           transform="translate(237.1885,153.0859)"><path
             d="M 0,0 -0.295,-1.844 -1.643,-10.241 -5,-31.156 c -0.187,-1.167 -1.195,-2.026 -2.377,-2.026 l -18.428,0 c -1.182,0 -2.189,0.859 -2.377,2.026 l -3.357,20.915 -1.348,8.397 L -33.182,0 0,0 z"
             style="fill:#fbc03f;fill-opacity:1;fill-rule:nonzero;stroke:none"
             id="path5342"
             inkscape:connector-curvature="0" /></g><g
           id="g5344"
           transform="translate(236.8936,151.2422)"><path
             d="m 0,0 -1.348,-8.397 -29.896,0 L -32.592,0 0,0 z"
             style="fill:#f6b430;fill-opacity:1;fill-rule:nonzero;stroke:none"
             id="path5346"
             inkscape:connector-curvature="0" /></g><g
           id="g5348"
           transform="translate(236.1284,145.3633)"><path
             d="m 0,0 -31.062,0 c -1.766,0 -3.21,1.444 -3.21,3.211 l 0,3.698 c 0,1.767 1.444,3.211 3.21,3.211 L 0,10.12 c 1.766,0 3.211,-1.444 3.211,-3.211 l 0,-3.698 C 3.211,1.444 1.766,0 0,0"
             style="fill:#fbc03f;fill-opacity:1;fill-rule:nonzero;stroke:none"
             id="path5350"
             inkscape:connector-curvature="0" /></g></g></g><g
       id="g5352"><g
         id="g5354"
         clip-path="url(#clipPath5356)"><g
           id="g5360"
           transform="translate(330.1177,179.8457)"><path
             d="m 0,0 c -73.469,-6.349 -118.819,0 -118.819,0 0.195,28.165 5.792,97.348 37.044,120.865 0.241,0.18 0.483,0.361 0.725,0.533 8.694,6.265 19.326,9.036 32.326,6.518 5.82,-1.124 10.955,-3.408 15.489,-6.613 0.629,-0.446 1.251,-0.91 1.857,-1.39 C -1.569,96.327 0.66,31.37 0,0"
             style="fill:#514d96;fill-opacity:1;fill-rule:nonzero;stroke:none"
             id="path5362"
             inkscape:connector-curvature="0" /></g></g></g><g
       id="g5364"><g
         id="g5366"
         clip-path="url(#clipPath5368)"><g
           id="g5372"><g
             id="g5374" /><g
             id="g5380"><g
               clip-path="url(#clipPath5376)"
               id="g5382"
               style="opacity:0.36000097"><path
                 d="m 245.383,150.759 -4.99,0 0,162.361 4.99,0 0,-162.361 z"
                 style="fill:#ffffff;fill-opacity:1;fill-rule:nonzero;stroke:none"
                 id="path5384"
                 inkscape:connector-curvature="0" /><path
                 d="m 265.726,150.759 -4.99,0 0,162.361 4.99,0 0,-162.361 z"
                 style="fill:#ffffff;fill-opacity:1;fill-rule:nonzero;stroke:none"
                 id="path5386"
                 inkscape:connector-curvature="0" /><path
                 d="m 285.301,150.759 -4.989,0 0,162.361 4.989,0 0,-162.361 z"
                 style="fill:#ffffff;fill-opacity:1;fill-rule:nonzero;stroke:none"
                 id="path5388"
                 inkscape:connector-curvature="0" /><path
                 d="m 305.261,150.759 -4.99,0 0,162.361 4.99,0 0,-162.361 z"
                 style="fill:#ffffff;fill-opacity:1;fill-rule:nonzero;stroke:none"
                 id="path5390"
                 inkscape:connector-curvature="0" /><path
                 d="m 324.836,150.759 -4.99,0 0,162.361 4.99,0 0,-162.361 z"
                 style="fill:#ffffff;fill-opacity:1;fill-rule:nonzero;stroke:none"
                 id="path5392"
                 inkscape:connector-curvature="0" /><path
                 d="m 225.807,150.759 -4.989,0 0,162.361 4.989,0 0,-162.361 z"
                 style="fill:#ffffff;fill-opacity:1;fill-rule:nonzero;stroke:none"
                 id="path5394"
                 inkscape:connector-curvature="0" /></g></g></g><g
           id="g5396"><g
             id="g5398" /><g
             id="g5404"><g
               clip-path="url(#clipPath5400)"
               id="g5406"
               style="opacity:0.27000403"><path
                 d="m 354.008,207.182 -162.362,0 0,4.99 162.362,0 0,-4.99 z"
                 style="fill:#ffffff;fill-opacity:1;fill-rule:nonzero;stroke:none"
                 id="path5408"
                 inkscape:connector-curvature="0" /></g></g></g><g
           id="g5410"><g
             id="g5412" /><g
             id="g5418"><g
               clip-path="url(#clipPath5414)"
               id="g5420"
               style="opacity:0.27000403"><path
                 d="m 354.008,227.525 -162.362,0 0,4.989 162.362,0 0,-4.989 z"
                 style="fill:#ffffff;fill-opacity:1;fill-rule:nonzero;stroke:none"
                 id="path5422"
                 inkscape:connector-curvature="0" /></g></g></g><g
           id="g5424"><g
             id="g5426" /><g
             id="g5432"><g
               clip-path="url(#clipPath5428)"
               id="g5434"
               style="opacity:0.27000403"><path
                 d="m 354.008,247.101 -162.362,0 0,4.99 162.362,0 0,-4.99 z"
                 style="fill:#ffffff;fill-opacity:1;fill-rule:nonzero;stroke:none"
                 id="path5436"
                 inkscape:connector-curvature="0" /></g></g></g><g
           id="g5438"><g
             id="g5440" /><g
             id="g5446"><g
               clip-path="url(#clipPath5442)"
               id="g5448"
               style="opacity:0.27000403"><path
                 d="m 354.008,267.06 -162.362,0 0,4.99 162.362,0 0,-4.99 z"
                 style="fill:#ffffff;fill-opacity:1;fill-rule:nonzero;stroke:none"
                 id="path5450"
                 inkscape:connector-curvature="0" /></g></g></g><g
           id="g5452"><g
             id="g5454" /><g
             id="g5460"><g
               clip-path="url(#clipPath5456)"
               id="g5462"
               style="opacity:0.27000403"><path
                 d="m 354.008,286.636 -162.362,0 0,4.99 162.362,0 0,-4.99 z"
                 style="fill:#ffffff;fill-opacity:1;fill-rule:nonzero;stroke:none"
                 id="path5464"
                 inkscape:connector-curvature="0" /></g></g></g><g
           id="g5466"><g
             id="g5468" /><g
             id="g5474"><g
               clip-path="url(#clipPath5470)"
               id="g5476"
               style="opacity:0.27000403"><path
                 d="m 354.008,187.606 -162.362,0 0,4.99 162.362,0 0,-4.99 z"
                 style="fill:#ffffff;fill-opacity:1;fill-rule:nonzero;stroke:none"
                 id="path5478"
                 inkscape:connector-curvature="0" /></g></g></g></g></g><g
       id="g5480"><g
         id="g5482"
         clip-path="url(#clipPath5484)"><g
           id="g5488"
           transform="translate(296.8843,301.1499)"><path
             d="m 0,0 -16.832,-37.584 -0.949,-2.115 -6.084,-13.58 -7.072,15.756 -0.85,1.893 -16.027,35.724 c 8.69,6.266 19.323,9.037 32.324,6.52 C -9.672,5.487 -4.538,3.202 0,0"
             style="fill:#ffffff;fill-opacity:1;fill-rule:nonzero;stroke:none"
             id="path5490"
             inkscape:connector-curvature="0" /></g><g
           id="g5492"
           transform="translate(280.1958,262.9087)"><path
             d="m 0,0 -7.177,-15.59 -7.072,15.756 1.899,23.705 0.2,2.423 0.214,2.695 0.768,0.11 6.862,0.983 0.099,-0.983 0.287,-2.887 0.237,-2.341 L 0,0 z"
             style="fill:#fa6e5b;fill-opacity:1;fill-rule:nonzero;stroke:none"
             id="path5494"
             inkscape:connector-curvature="0" /></g><g
           id="g5496"
           transform="translate(276.5132,286.7812)"><path
             d="m 0,0 -8.665,0 0.413,5.116 0.769,0.11 6.961,0 L 0,0 z"
             style="fill:#f36151;fill-opacity:1;fill-rule:nonzero;stroke:none"
             id="path5498"
             inkscape:connector-curvature="0" /></g><g
           id="g5500"
           transform="translate(275.2574,298.4771)"><path
             d="M 0,0 -6.111,0 -9.42,0 c -0.467,0 -0.799,-0.428 -0.658,-0.848 l 2.752,-8.223 c 0.091,-0.271 0.357,-0.455 0.658,-0.455 l 0.557,0 6.111,0 0.557,0 c 0.3,0 0.567,0.184 0.658,0.455 l 2.752,8.223 C 4.107,-0.428 3.775,0 3.309,0 L 0,0 z"
             style="fill:#fa6e5b;fill-opacity:1;fill-rule:nonzero;stroke:none"
             id="path5502"
             inkscape:connector-curvature="0" /></g><g
           id="g5504"
           transform="translate(263.4273,308.792)"><path
             d="m 0,0 8.724,-12.963 c 0,0 -7.583,-1.364 -12.559,-6.316 l 0.092,17.11 c 0.002,0.208 0.111,0.401 0.29,0.508 l 2.965,1.778 C -0.321,0.217 -0.104,0.165 0,0"
             style="fill:#e5e5e5;fill-opacity:1;fill-rule:nonzero;stroke:none"
             id="path5506"
             inkscape:connector-curvature="0" /></g><g
           id="g5508"
           transform="translate(280.4439,308.7637)"><path
             d="m 0,0 -8.706,-12.935 c 0,0 7.584,-1.363 12.559,-6.315 L 3.22,-1.615 c -0.008,0.224 -0.135,0.426 -0.333,0.53 L 0.546,0.146 C 0.354,0.248 0.116,0.184 0,0"
             style="fill:#e5e5e5;fill-opacity:1;fill-rule:nonzero;stroke:none"
             id="path5510"
             inkscape:connector-curvature="0" /></g><g
           id="g5512"
           transform="translate(299.5982,351.9287)"><path
             d="m 0,0 c 3.266,-8.769 2.077,-19.617 -2.551,-27.19 -4.627,-7.574 -12.379,-11.789 -20.069,-11.542 -1.019,14.239 0.313,28.683 3.871,42.17 1.799,6.823 2.875,9.174 8.59,7.336 C -5.624,9.315 -1.981,5.321 0,0"
             style="fill:#342e73;fill-opacity:1;fill-rule:nonzero;stroke:none"
             id="path5514"
             inkscape:connector-curvature="0" /></g><g
           id="g5516"
           transform="translate(280.5874,328.604)"><path
             d="m 0,0 0,-24.015 c 0,-0.27 -0.011,-0.535 -0.038,-0.795 -0.398,-4.356 -4.064,-7.762 -8.519,-7.762 -4.725,0 -8.556,3.832 -8.556,8.557 L -17.113,0 0,0 z"
             style="fill:#fecaa0;fill-opacity:1;fill-rule:nonzero;stroke:none"
             id="path5518"
             inkscape:connector-curvature="0" /></g><g
           id="g5520"
           transform="translate(280.5874,327.417)"><path
             d="m 0,0 0,-22.828 c 0,-0.27 -0.011,-0.535 -0.038,-0.795 -4.357,0.79 -8.706,1.745 -12.858,3.285 -1.32,0.491 -2.777,1.077 -4.217,1.794 l 0,13.062 c 5.46,1.546 11.14,2.451 16.147,5.14 C -0.662,-0.182 -0.337,-0.066 0,0"
             style="fill:#fab687;fill-opacity:1;fill-rule:nonzero;stroke:none"
             id="path5522"
             inkscape:connector-curvature="0" /></g><g
           id="g5524"
           transform="translate(241.9449,337.7129)"><path
             d="m 0,0 c 0,-15.397 10.381,-27.879 23.187,-27.879 12.805,0 23.186,12.482 23.186,27.879 0,15.397 -10.381,27.879 -23.186,27.879 C 10.381,27.879 0,15.397 0,0"
             style="fill:#fecaa0;fill-opacity:1;fill-rule:nonzero;stroke:none"
             id="path5526"
             inkscape:connector-curvature="0" /></g><g
           id="g5528"
           transform="translate(282.4263,335.1104)"><path
             d="m 0,0 c -1.062,-4.449 0.963,-8.744 4.521,-9.593 3.56,-0.849 7.305,2.069 8.367,6.518 C 13.949,1.373 11.925,5.668 8.366,6.517 4.807,7.366 1.062,4.448 0,0"
             style="fill:#fecaa0;fill-opacity:1;fill-rule:nonzero;stroke:none"
             id="path5530"
             inkscape:connector-curvature="0" /></g><g
           id="g5532"
           transform="translate(247.9693,343.5347)"><path
             d="m 0,0 c -6.264,2.42 -12.092,7.74 -12.37,14.449 3.49,0.655 6.271,3.181 9.116,5.306 5.902,4.407 12.931,7.443 20.272,8.049 7.34,0.605 14.979,-1.338 20.757,-5.906 2.476,-1.957 4.699,-4.608 4.948,-7.754 C 42.931,11.504 41.687,8.91 39.898,6.958 35.815,2.5 28.084,0.616 22.386,-0.818 15.043,-2.666 7.134,-2.756 0,0"
             style="fill:#342e73;fill-opacity:1;fill-rule:nonzero;stroke:none"
             id="path5534"
             inkscape:connector-curvature="0" /></g><g
           id="g5536"
           transform="translate(281.1226,338.2173)"><path
             d="m 0,0 c -0.074,-1.339 -0.245,-2.728 0.214,-3.988 0.459,-1.26 1.813,-2.324 3.094,-1.923 0.796,0.249 1.338,0.972 1.797,1.669 3.797,5.773 5.723,12.756 5.421,19.659 -0.076,1.73 -0.373,3.625 -1.68,4.761 C 8.253,20.693 7.508,20.995 6.769,21.261 5.381,21.76 3.888,22.165 2.443,21.865 0.105,21.38 -1.512,19.139 -2.133,16.833 -3.748,10.835 0.342,6.116 0,0"
             style="fill:#342e73;fill-opacity:1;fill-rule:nonzero;stroke:none"
             id="path5538"
             inkscape:connector-curvature="0" /></g></g></g><g
       id="g5540"><g
         id="g5542"
         clip-path="url(#clipPath5544)"><g
           id="g5548"
           transform="translate(229.9585,346.7261)"><path
             d="m 0,0 -76.662,0 c -2.376,0 -4.319,-1.943 -4.319,-4.319 l 0,-39.231 c 0,-2.375 1.943,-4.319 4.319,-4.319 l 57.005,0 13.386,-17.115 c 0.875,-1.12 2.672,-0.501 2.672,0.921 l 0,16.194 3.599,0 c 2.375,0 4.319,1.944 4.319,4.319 l 0,39.231 C 4.319,-1.943 2.375,0 0,0"
             style="fill:#e1dcfd;fill-opacity:1;fill-rule:nonzero;stroke:none"
             id="path5550"
             inkscape:connector-curvature="0" /></g><g
           id="g5552"
           transform="translate(174.3701,322.7915)"><path
             d="m 0,0 c 0,-3.235 -2.623,-5.857 -5.858,-5.857 -3.235,0 -5.858,2.622 -5.858,5.857 0,3.235 2.623,5.858 5.858,5.858 C -2.623,5.858 0,3.235 0,0"
             style="fill:#ae98fe;fill-opacity:1;fill-rule:nonzero;stroke:none"
             id="path5554"
             inkscape:connector-curvature="0" /></g><g
           id="g5556"
           transform="translate(198.2051,322.7915)"><path
             d="m 0,0 c 0,-3.235 -2.623,-5.857 -5.857,-5.857 -3.236,0 -5.858,2.622 -5.858,5.857 0,3.235 2.622,5.858 5.858,5.858 C -2.623,5.858 0,3.235 0,0"
             style="fill:#ae98fe;fill-opacity:1;fill-rule:nonzero;stroke:none"
             id="path5558"
             inkscape:connector-curvature="0" /></g><g
           id="g5560"
           transform="translate(222.0406,322.7915)"><path
             d="m 0,0 c 0,-3.235 -2.623,-5.857 -5.858,-5.857 -3.235,0 -5.858,2.622 -5.858,5.857 0,3.235 2.623,5.858 5.858,5.858 C -2.623,5.858 0,3.235 0,0"
             style="fill:#ae98fe;fill-opacity:1;fill-rule:nonzero;stroke:none"
             id="path5562"
             inkscape:connector-curvature="0" /></g></g></g></g></svg>